<?xml version="1.0" encoding="UTF-8" standalone="no"?>
<!-- Created with Inkscape (http://www.inkscape.org/) -->

<svg
   xmlns:dc="http://purl.org/dc/elements/1.1/"
   xmlns:cc="http://creativecommons.org/ns#"
   xmlns:rdf="http://www.w3.org/1999/02/22-rdf-syntax-ns#"
   xmlns:svg="http://www.w3.org/2000/svg"
   xmlns="http://www.w3.org/2000/svg"
   xmlns:sodipodi="http://sodipodi.sourceforge.net/DTD/sodipodi-0.dtd"
   xmlns:inkscape="http://www.inkscape.org/namespaces/inkscape"
   version="1.1"
   id="svg4517"
   width="27"
   height="34"
   viewBox="0 0 326.7 411.4"
   sodipodi:docname="accademy.svg"
   inkscape:version="0.92.1 r15371">
  <metadata
     id="metadata4523">
    <rdf:RDF>
      <cc:Work
         rdf:about="">
        <dc:format>image/svg+xml</dc:format>
        <dc:type
           rdf:resource="http://purl.org/dc/dcmitype/StillImage" />
        <dc:title></dc:title>
      </cc:Work>
    </rdf:RDF>
  </metadata>
  <defs
     id="defs4521" />
  <sodipodi:namedview
     pagecolor="#ffffff"
     bordercolor="#666666"
     borderopacity="1"
     objecttolerance="10"
     gridtolerance="10"
     guidetolerance="10"
     inkscape:pageopacity="0"
     inkscape:pageshadow="2"
     inkscape:window-width="1920"
     inkscape:window-height="1017"
     id="namedview4519"
     showgrid="false"
     scale-x="12.1"
     inkscape:zoom="11.313708"
     inkscape:cx="-2.8448515"
     inkscape:cy="18.751052"
     inkscape:window-x="-8"
     inkscape:window-y="-8"
     inkscape:window-maximized="1"
     inkscape:current-layer="svg4517" />
  <path
     style="fill:#040404;stroke-width:1.33333337"
     d="M 82.03733,363.51834 2.0373301,315.72382 1.6982801,166.56304 1.3592401,17.402265 83.03162,8.940726 164.70399,0.47919526 245.37066,8.976466 l 80.66667,8.497269 0.33908,148.811615 0.33908,148.81162 -80.29077,47.72107 c -44.15992,26.2466 -81.2125,47.89517 -82.33908,48.10794 -1.12657,0.21279 -38.04831,-21.12065 -82.04831,-47.40764 z m 153.33333,-18.39521 69.33333,-41.29932 0.34652,-62.17504 c 0.19059,-34.19626 0.0336,-62.17504 -0.34884,-62.17504 -0.38244,0 -10.28837,5.72259 -22.01317,12.71686 l -21.31784,12.71684 -0.0431,31.61649 -0.0431,31.61648 -48.75803,29.14561 -48.75802,29.14561 -48.48969,-29.14561 -48.4897,-29.14561 -0.0425,-7 c -0.0234,-3.85 0.18757,-7 0.46876,-7 0.44428,0 80.73946,47.64664 92.48874,54.88223 l 4.33333,2.66859 v -8.02597 -8.02597 l -48.33333,-29.08277 -48.33334,-29.08278 -0.40301,-7 c -0.22166,-3.85 -0.10055,-7 0.26914,-7 0.36969,0 21.38784,12.31376 46.70701,27.36392 25.31916,15.05016 46.94804,27.71435 48.06419,28.14266 1.66479,0.63884 2.02933,-0.53415 2.02933,-6.52972 v -7.30844 L 93.44247,223.12504 c -38.82718,-23.1094 -70.92718,-41.6848 -71.33333,-41.27865 -0.40615,0.40616 -0.73846,27.56498 -0.73846,60.35297 0,53.57788 0.22106,59.79983 2.18301,61.44445 4.85413,4.069 139.91387,83.76595 141.15032,83.29091 0.7333,-0.28175 32.5333,-19.09696 70.66664,-41.81159 z m -61.0473,-103.85592 c 5.70935,-3.4136 10.86352,-6.62648 11.45371,-7.13976 0.5902,-0.51328 -4.05784,-3.87033 -10.32897,-7.46013 l -11.40207,-6.52692 -0.004,-7 c -0.003,-3.85 0.23485,-7 0.52721,-7 0.29236,0 8.1691,4.52108 17.50387,10.04685 l 16.97231,10.04686 6.01553,-3.91306 6.01553,-3.91305 -23.46882,-13.80047 -23.46883,-13.80046 -0.0505,-7 c -0.0279,-3.85 0.22414,-7 0.55992,-7 0.33576,0 13.78258,7.8342 29.88182,17.40933 l 29.27135,17.40933 6.27248,-3.90409 6.27248,-3.90409 -36.15475,-21.53632 -36.15431,-21.53631 v -7.19733 -7.19734 l 42.20243,25.13978 42.20242,25.13977 6.19537,-3.57804 c 31.6824,-18.29763 49.30184,-29.09724 49.00497,-30.03699 -0.59822,-1.89364 -137.42131,-81.330755 -140.27185,-81.439395 -2.01335,-0.0767 -137.29151,79.699505 -140.66667,82.953945 -0.36666,0.35356 -0.0667,0.86095 0.66667,1.12755 0.73333,0.2666 31.93333,18.73058 69.33334,41.03109 37.4,22.30049 68.72871,40.60023 69.61936,40.66607 0.89066,0.0659 6.29066,-2.67323 12,-6.08682 z M 93.56147,106.10319 163.0219,64.732655 232.13578,105.45516 c 38.01264,22.39737 70.04111,41.07831 71.17439,41.51319 1.83822,0.7054 2.06049,-5.2352 2.06049,-55.073085 v -55.86378 l -71,-7.40276 -71,-7.402749 -70.66666,7.457209 -70.66667,7.45722 -0.34797,55.66666 c -0.23563,37.696665 0.0975,55.666665 1.03186,55.666665 0.7589,0 32.63701,-18.61674 70.84025,-41.37054 z"
     id="path5070"
     inkscape:connector-curvature="0" />
</svg>
