<?xml version="1.0" encoding="UTF-8" standalone="no"?>
<!-- Created with Inkscape (http://www.inkscape.org/) -->

<svg
   xmlns:dc="http://purl.org/dc/elements/1.1/"
   xmlns:cc="http://creativecommons.org/ns#"
   xmlns:rdf="http://www.w3.org/1999/02/22-rdf-syntax-ns#"
   xmlns:svg="http://www.w3.org/2000/svg"
   xmlns="http://www.w3.org/2000/svg"
   xmlns:sodipodi="http://sodipodi.sourceforge.net/DTD/sodipodi-0.dtd"
   xmlns:inkscape="http://www.inkscape.org/namespaces/inkscape"
   version="1.1"
   id="svg10"
   width="9"
   height="18"
   viewBox="0 0 231.3 462.6"
   sodipodi:docname="facebook.svg"
   inkscape:version="0.92.1 r15371">
  <metadata
     id="metadata16">
    <rdf:RDF>
      <cc:Work
         rdf:about="">
        <dc:format>image/svg+xml</dc:format>
        <dc:type
           rdf:resource="http://purl.org/dc/dcmitype/StillImage" />
        <dc:title></dc:title>
      </cc:Work>
    </rdf:RDF>
  </metadata>
  <defs
     id="defs14" />
  <sodipodi:namedview
     pagecolor="#0000ff"
     bordercolor="#666666"
     borderopacity="1"
     objecttolerance="10"
     gridtolerance="10"
     guidetolerance="10"
     inkscape:pageopacity="0"
     inkscape:pageshadow="2"
     inkscape:window-width="1920"
     inkscape:window-height="1017"
     id="namedview12"
     showgrid="false"
     scale-x="25.7"
     inkscape:zoom="29.536457"
     inkscape:cx="8.2121833"
     inkscape:cy="6.6170537"
     inkscape:window-x="-8"
     inkscape:window-y="-8"
     inkscape:window-maximized="1"
     inkscape:current-layer="svg10" />
  <path
     style="fill:#f2f2f2;stroke-width:0.89719629"
     d="M 56.911226,346.52153 V 231.68041 h -22.8785 -22.87851 v -38.57944 -38.57944 h 22.87851 22.8785 l 0.0155,-34.76636 c 0.0159,-35.378815 0.64542,-46.694575 3.1323,-56.299065 7.21978,-27.88322 25.93479,-47.39538 53.678044,-55.9643994 14.71368,-4.54459 18.92262,-4.87868 66.31432,-5.26366 l 44.63552,-0.36258 v 40.4044294 40.40443 l -28.55843,0.26005 -28.55843,0.26005 -4.41354,2.71773 c -2.49935,1.53904 -5.67816,4.59869 -7.32942,7.05468 l -2.91588,4.33693 v 28.160275 28.16029 h 35.88785 35.88785 l -0.003,2.46729 c -0.008,6.70233 -4.27016,45.4311 -7.42929,67.51402 l -1.09098,7.62617 -32.07477,0.23563 -32.07477,0.23563 v 114.8298 114.82979 H 104.46271 56.911306 V 346.52153 Z"
     id="path34"
     inkscape:connector-curvature="0" />
</svg>
