<?xml version="1.0" encoding="UTF-8" standalone="no"?>
<!-- Created with Inkscape (http://www.inkscape.org/) -->

<svg
   xmlns:dc="http://purl.org/dc/elements/1.1/"
   xmlns:cc="http://creativecommons.org/ns#"
   xmlns:rdf="http://www.w3.org/1999/02/22-rdf-syntax-ns#"
   xmlns:svg="http://www.w3.org/2000/svg"
   xmlns="http://www.w3.org/2000/svg"
   xmlns:sodipodi="http://sodipodi.sourceforge.net/DTD/sodipodi-0.dtd"
   xmlns:inkscape="http://www.inkscape.org/namespaces/inkscape"
   version="1.1"
   id="svg43"
   width="40"
   height="35"
   viewBox="0 0 132 115.5"
   sodipodi:docname="icon-burger.svg"
   inkscape:version="0.92.1 r15371">
  <metadata
     id="metadata49">
    <rdf:RDF>
      <cc:Work
         rdf:about="">
        <dc:format>image/svg+xml</dc:format>
        <dc:type
           rdf:resource="http://purl.org/dc/dcmitype/StillImage" />
        <dc:title></dc:title>
      </cc:Work>
    </rdf:RDF>
  </metadata>
  <defs
     id="defs47" />
  <sodipodi:namedview
     pagecolor="#ffffff"
     bordercolor="#666666"
     borderopacity="1"
     objecttolerance="10"
     gridtolerance="10"
     guidetolerance="10"
     inkscape:pageopacity="0"
     inkscape:pageshadow="2"
     inkscape:window-width="1920"
     inkscape:window-height="1017"
     id="namedview45"
     showgrid="false"
     scale-x="3.3"
     inkscape:zoom="14.454546"
     inkscape:cx="-1.2668845"
     inkscape:cy="20.806086"
     inkscape:window-x="-8"
     inkscape:window-y="-8"
     inkscape:window-maximized="1"
     inkscape:current-layer="svg43" />
  <path
     style="fill:#6bb6d5;stroke-width:1.33333325"
     d="m 19.135811,111.54754 c -3.65235,-2.53139 -5.80272,-5.35502 -7.139831,-9.37521 -1.22256,-3.675781 -3.0007395,-6.16625 -4.9250395,-6.897867 -3.52114,-1.338735 -4.70868,-3.868271 -4.70868,-10.029786 0,-4.446271 2.77538,-8.627637 5.76191,-8.680857 37.0160205,-0.659619 118.9833995,0.320041 120.3306695,1.438173 4.73964,3.933555 3.09346,15.031299 -2.54782,17.176109 -1.99765,0.759508 -3.45947,2.653923 -3.95334,5.123258 -0.91878,4.5939 -6.99937,12.29047 -9.70995,12.29047 -1.03481,0 -1.88148,0.6 -1.88148,1.33334 0,0.86224 -15.19268,1.31768 -42.999989,1.28904 l -43,-0.0443 z m 93.995669,-6.85315 c 2.14359,-2.14359 3.89744,-4.47012 3.89744,-5.17008 0,-3.970707 -4.23543,-4.29558 -51.490469,-3.949519 l -47.84285,0.350365 -0.42235,2.971593 c -0.25802,1.815401 0.88565,4.279591 2.93939,6.333331 l 3.36174,3.36175 h 42.82984 42.829829 z m 11.9532,-16.206756 c 3.58613,-6.700746 4.37336,-6.616494 -58.334599,-6.243186 -54.952051,0.327136 -58.3786505,0.487052 -58.8132205,2.74476 -1.19961,6.232163 -0.84906,6.269281 59.2084205,6.269281 55.799489,0 56.473739,-0.03225 57.939399,-2.770855 z M 14.695601,65.77176 c -7.0548705,-4.518059 -4.9842306,-9.957097 2.17962,-5.725307 3.70814,2.190455 4.00638,2.165196 7.99844,-0.677398 l 4.00831,-1.707408 5.35455,1.686381 5.21619,2.931663 4.23165,-3.013199 4.09329,-2.252194 3.97416,2.074927 c 5.20205,2.716011 5.33688,3.497421 11.00249,0.154632 l 4.4061,-1.643564 3.547086,1.643564 c 4.968872,2.302355 5.513802,3.358247 10.375433,-0.23611 l 4.015191,-1.672129 3.876827,1.672129 c 5.602479,2.416427 5.868532,3.627246 10.774651,0 l 3.738451,-1.395399 4.44953,1.614219 c 4.76883,1.730056 4.39076,3.050842 8.11804,0.911677 6.91043,-3.966039 8.90048,0.701051 2.36063,5.536169 -4.6376,3.428728 -6.62001,3.616516 -10.13248,0.959815 -3.36412,-2.544488 -7.82911,-2.563572 -9.921498,-0.0424 -2.08058,2.506946 -5.238242,2.491354 -8.588173,-0.0424 -3.334844,-2.522351 -7.966108,-2.502864 -10.078493,0.0424 -2.126485,2.562258 -5.873515,2.562258 -8,0 -2.112385,-2.545268 -6.743645,-2.564755 -10.078495,-0.0424 -3.53254,2.67188 -5.3807,2.522074 -9.87459,-0.800407 l -3.84511,-1.94344 -3.61405,1.94344 c -4.75707,2.558094 -7.6118,3.625327 -9.92109,0.842807 -2.09238,-2.521168 -6.55739,-2.502084 -9.9215,0.0424 -3.38418,2.559662 -4.56471,2.455184 -9.74516,-0.862468 z M 11.02617,49.92069 c -1.2169896,-1.96912 1.873301,-15.799577 4.831931,-21.625127 17.92366,-35.2917149 76.057477,-38.0033014 98.112339,-4.576341 5.6242,8.524185 8.95531,18.169608 8.17689,23.676637 l -0.45174,3.195965 -54.912209,0.348052 C 30.335351,51.170896 11.58704,50.828196 11.02617,49.92069 Z M 116.09901,44.130371 C 117.35459,40.858386 110.57512,26.909662 104.93725,21.165089 97.858557,13.952417 89.432193,9.3923345 77.770333,6.4632091 69.81897,4.4660541 67.214171,4.3602241 59.321561,5.7136561 38.889581,9.2173515 23.695491,20.83604 18.433461,36.980146 c -3.06375,9.399704 -5.52458,8.945012 48.41097,8.945012 39.471679,0 48.694819,-0.336082 49.254579,-1.794787 z M 64.584481,27.702935 c -1.95353,-1.953533 -0.82892,-5.777777 1.69909,-5.777777 3.403444,0 4.713472,2.295235 2.69688,4.725074 -1.76022,2.120942 -3.02488,2.42379 -4.39597,1.052703 z m -13.30555,-7.972221 c -2.05398,-2.053978 -0.8632,-5.805554 1.84273,-5.805554 2.07402,0 2.65358,0.719202 2.33334,2.895562 -0.44248,3.007064 -2.58561,4.500454 -4.17607,2.909992 z m 26.638888,-0.02777 c -1.953535,-1.953542 -0.828928,-5.777784 1.699088,-5.777784 3.403441,0 4.713469,2.295234 2.696882,4.725072 -1.760226,2.120942 -3.024884,2.42379 -4.39597,1.052704 z"
     id="path53"
     inkscape:connector-curvature="0"
     sodipodi:nodetypes="ssssscccssscsssscsscccssscssssscccccsscsscsscssscscsssscscsscssccsccsssssccscccscccsscc" />
</svg>
