<?xml version="1.0" encoding="UTF-8" standalone="no"?>
<!-- Created with Inkscape (http://www.inkscape.org/) -->

<svg
   xmlns:dc="http://purl.org/dc/elements/1.1/"
   xmlns:cc="http://creativecommons.org/ns#"
   xmlns:rdf="http://www.w3.org/1999/02/22-rdf-syntax-ns#"
   xmlns:svg="http://www.w3.org/2000/svg"
   xmlns="http://www.w3.org/2000/svg"
   xmlns:sodipodi="http://sodipodi.sourceforge.net/DTD/sodipodi-0.dtd"
   xmlns:inkscape="http://www.inkscape.org/namespaces/inkscape"
   version="1.1"
   id="svg44"
   width="32"
   height="38"
   viewBox="0 0 201.6 239.4"
   sodipodi:docname="icon-gift-2.svg"
   inkscape:version="0.92.1 r15371">
  <metadata
     id="metadata50">
    <rdf:RDF>
      <cc:Work
         rdf:about="">
        <dc:format>image/svg+xml</dc:format>
        <dc:type
           rdf:resource="http://purl.org/dc/dcmitype/StillImage" />
        <dc:title></dc:title>
      </cc:Work>
    </rdf:RDF>
  </metadata>
  <defs
     id="defs48" />
  <sodipodi:namedview
     pagecolor="#ffffff"
     bordercolor="#666666"
     borderopacity="1"
     objecttolerance="10"
     gridtolerance="10"
     guidetolerance="10"
     inkscape:pageopacity="0"
     inkscape:pageshadow="2"
     inkscape:window-width="1920"
     inkscape:window-height="1017"
     id="namedview46"
     showgrid="false"
     inkscape:zoom="7.9550565"
     inkscape:cx="9.71757"
     inkscape:cy="34.263146"
     inkscape:window-x="-8"
     inkscape:window-y="-8"
     inkscape:window-maximized="1"
     inkscape:current-layer="svg44"
     fit-margin-top="0"
     fit-margin-left="0"
     fit-margin-right="0"
     fit-margin-bottom="0"
     scale-x="6.3" />
  <path
     style="fill:#6db7d5;stroke-width:1.33333337"
     d="m 13.043122,236.17846 c -1.79042,-2.55617 -2.07561,-9.94373 -2.07561,-53.76757 v -50.80424 l -3.0859312,-2.89909 c -1.69727,-1.59449 -3.79727,-2.89908 -4.66667,-2.89908 -1.16143,0 -1.58073,-6.5018 -1.58073,-24.51116 0,-24.291878 0.0268,-24.518348 3,-25.315128 1.65,-0.44218 16.3894412,-0.81216 32.7543212,-0.82217 37.88274,-0.0232 41.42155,-1.36773 25.14855,-9.55503 -10.57317,-5.31958 -20.35791,-13.51126 -25.13335,-21.04135 -7.18543,-11.33024 -4.1112,-25.37375 7.21535,-32.96074 2.02077,-1.3536 4.55579,-2.8339705 4.5579,-3.7506405 0.0028,-1.2160998 2.54816,-2.0437798 11.79056,-2.0437798 8.63327,0 12.66667,0.48668 12.66667,1.5283898 0,0.84062 2.63728,4.3478605 5.86063,7.7938805 6.49262,6.94114 12.759051,18.5805 15.993481,29.70656 2.65413,9.12986 5.586657,12.02913 8.348887,8.25417 1.05294,-1.43899 2.85229,-5.84098 3.99855,-9.7822 2.2804,-7.8408 6.04661,-15.10137 10.35682,-19.96612 3.26104,-3.68059 14.24787,-9.53468 17.89448,-9.53468 4.68476,0 14.56812,5.29219 18.72495,10.02657 4.90344,5.58469 6.09951,9.59387 4.86752,16.31552 -1.20404,6.56913 -14.46184,19.70985 -25.17076,24.94848 -8.15046,3.98707 -10.54069,6.83628 -7.40218,8.82357 1.02352,0.6481 16.86095,1.19574 35.19428,1.21698 18.33333,0.0212 34.68333,0.40041 36.33333,0.84259 2.97316,0.79678 3,1.02325 3,25.315128 0,20.47081 -0.31721,24.51116 -1.9244,24.51116 -1.05841,0 -2.85841,1.3335 -4,2.96334 -1.79179,2.55814 -2.0756,10.02004 -2.0756,54.57143 0,45.13867 -0.26265,51.87073 -2.09524,53.70332 -1.86203,1.86203 -11.79688,2.09524 -89.25772,2.09524 H 15.118722 Z m 67.52314,-6.06133 c 2.47635,-1.32531 1.06792,-3.64335 1.06792,-49.65816 v -47.92235 l -3.22432,-2.11265 c -4.59446,-3.01041 -53.51961,-2.37729 -55.47277,0.71784 -0.73194,1.1599 -1.27065,21.99459 -1.28249,49.60041 -0.0189,43.93976 0.15902,47.70494 2.31291,48.95946 3.12864,1.82226 53.20705,2.23061 56.59875,0.41545 z m 32.860098,-0.25093 0.20782,-2.8756 v -68.01206 c 0,-44.33262 -0.48055,-68.909961 -1.38025,-70.591051 -1.1625,-2.17216 -2.85043,-2.57901 -10.69965,-2.57901 -8.776957,0 -9.395127,0.19908 -10.619767,3.42013 -0.78242,2.05792 -1.30033,30.173781 -1.30033,70.591071 v 67.17092 l 0.11893,2.96449 c 1.62984,1.14157 8.54074,1.18672 11.881067,1.18672 3.34032,0 10.16234,-0.13404 11.79218,-1.27561 z m 67.94114,-0.32439 c 1.18562,-1.18561 1.6,-14.12291 1.6,-49.95309 0,-47.3557 -0.0563,-48.38321 -2.72884,-49.81352 -4.17013,-2.23178 -52.20196,-1.18818 -55.07019,1.19654 -1.96964,1.6376 -2.20096,6.77949 -2.20096,48.92439 v 47.09447 l 0.03,2.8756 c 2.43066,1.70249 10.46909,1.27561 31.3333,1.27561 18.00627,0 25.90403,-0.46739 27.03664,-1.6 z M 77.634182,117.95129 c 3.25408,-0.90271 3.34228,-1.2594 3.70976,-15.00141 0.28003,-10.471961 -0.0785,-14.454281 -1.40023,-15.551181 -2.63595,-2.18765 -63.06692,-2.39474 -65.68119,-0.22508 -1.48102,1.22913 -1.95667,4.77336 -1.94126,14.464781 0.0209,13.166 0.5135,15.21214 3.97959,16.53156 2.85246,1.08583 57.33107,0.89161 61.33333,-0.21867 z m 112.030108,-1.47614 c 0.69431,-1.1 1.27157,-7.77654 1.2828,-14.83675 0.0155,-9.699171 -0.45971,-13.235201 -1.94388,-14.466961 -1.43532,-1.19121 -10.14259,-1.58415 -32.33332,-1.45912 -26.96229,0.15192 -30.561,0.42667 -32.08018,2.4493 -1.18254,1.5744 -1.59443,6.18554 -1.33334,14.926531 0.50461,16.89349 -1.10756,16.1905 36.09501,15.73931 24.10418,-0.29233 29.26547,-0.69285 30.31291,-2.35231 z M 88.653003,59.959862 c -0.582461,-9.59576 -9.151981,-29.29415 -16.139911,-37.10011 -7.23034,-8.07674 -15.04087,-8.33965 -23.63319,-0.7955 -3.96744,3.48347 -4.57905,4.83787 -4.57905,10.14022 0,5.64129 0.54854,6.64686 7.01621,12.86188 7.82954,7.52368 30.85694,20.96847 34.98379,20.42565 2.213681,-0.29117 2.613241,-1.23091 2.352151,-5.53214 z m 34.271657,-0.0998 c 0.88935,-1.0716 2.86115,-2.34324 4.38177,-2.82587 3.87576,-1.23012 15.79882,-9.88685 18.99442,-13.79088 5.51838,-6.74178 4.88864,-10.73732 -2.48911,-15.79264 -6.49789,-4.45242 -11.06038,-3.88561 -16.71734,2.07684 -5.40273,5.69448 -14.13371,26.30772 -12.7121,30.01238 1.06679,2.78002 6.33693,2.97755 8.54236,0.32017 z"
     id="path54"
     inkscape:connector-curvature="0"
     sodipodi:nodetypes="csccsscssssssscssssscsscsssscssscccsccccsccccscsssccsccsccsccsccscccsccccscssccscssscsccsscs" />
</svg>
