<?xml version="1.0" encoding="UTF-8" standalone="no"?>
<!-- Created with Inkscape (http://www.inkscape.org/) -->

<svg
   xmlns:dc="http://purl.org/dc/elements/1.1/"
   xmlns:cc="http://creativecommons.org/ns#"
   xmlns:rdf="http://www.w3.org/1999/02/22-rdf-syntax-ns#"
   xmlns:svg="http://www.w3.org/2000/svg"
   xmlns="http://www.w3.org/2000/svg"
   xmlns:sodipodi="http://sodipodi.sourceforge.net/DTD/sodipodi-0.dtd"
   xmlns:inkscape="http://www.inkscape.org/namespaces/inkscape"
   version="1.1"
   id="svg4485"
   width="39"
   height="37"
   viewBox="0 0 390 370"
   sodipodi:docname="icon-house.svg"
   inkscape:version="0.92.1 r15371">
  <metadata
     id="metadata4491">
    <rdf:RDF>
      <cc:Work
         rdf:about="">
        <dc:format>image/svg+xml</dc:format>
        <dc:type
           rdf:resource="http://purl.org/dc/dcmitype/StillImage" />
        <dc:title></dc:title>
      </cc:Work>
    </rdf:RDF>
  </metadata>
  <defs
     id="defs4489" />
  <sodipodi:namedview
     pagecolor="#ffffff"
     bordercolor="#666666"
     borderopacity="1"
     objecttolerance="10"
     gridtolerance="10"
     guidetolerance="10"
     inkscape:pageopacity="0"
     inkscape:pageshadow="2"
     inkscape:window-width="1920"
     inkscape:window-height="1017"
     id="namedview4487"
     showgrid="false"
     scale-x="10"
     inkscape:zoom="12.623717"
     inkscape:cx="19.422467"
     inkscape:cy="27.126168"
     inkscape:window-x="-8"
     inkscape:window-y="-8"
     inkscape:window-maximized="1"
     inkscape:current-layer="svg4485" />
  <path
     style="fill:#6eb7d5;stroke-width:1.33333337"
     d="m 38.092389,369.13371 c -6.57248,-5.1699 -2.78248,-12.4622 8.08105,-15.54868 3.681,-1.04582 5.95055,-2.65264 7,-4.95593 1.12953,-2.47903 1.55295,-26.45037 1.55295,-87.91703 0,-75.0483 -0.23455,-84.74325 -2.09524,-86.60393 -1.15238,-1.15239 -2.38218,-2.09524 -2.73288,-2.09524 -2.58588,0 -9.42062,5.417 -18.50521,14.66667 -9.94585,10.12656 -15.91004,14.66666 -19.26712,14.66666 -2.6633197,0 -6.7328783,-5.34762 -6.7328783,-8.84736 0,-2.87185 16.7512883,-20.29629 91.6666483,-95.350259 C 147.47638,46.638683 188.91811,4.1199926 189.15245,2.6626326 c 0.60876,-3.7859201 10.51277,-3.8914201 11.14786,-0.11875 0.54208,3.22018 55.00666,58.8023404 57.61999,58.8023404 1.07192,0 2.8918,-0.94286 4.04417,-2.09524 1.74727,-1.74726 2.09524,-6.02301 2.09524,-25.74516 0,-18.73036 0.40722,-24.1883104 1.9576,-26.2381 1.07667,-1.4234904 1.97667,-3.6381704 2,-4.9215004 0.0392,-2.1569301 2.48747,-2.3333401 32.38282,-2.3333401 h 32.34041 l 1.92461,5.0000001 c 1.54054,4.00218 2.0713,17.7952304 2.65959,69.1158504 l 0.73497,64.115857 3.79071,5.46815 c 2.08489,3.00748 12.42477,13.92588 22.97751,24.26311 10.55273,10.33724 19.81069,19.96073 20.57324,21.38556 1.01288,1.89258 0.85765,3.85618 -0.57614,7.2877 -3.12684,7.48358 -7.48578,6.53854 -18.47537,-4.00556 -16.63916,-15.96464 -24.43671,-19.91814 -27.60579,-13.99668 -0.95893,1.7918 -1.29368,29.32624 -1.0469,86.11596 l 0.36274,83.48198 3.74102,3.21738 c 2.82821,2.43234 5.29913,3.21738 10.12669,3.21738 7.53604,0 10.79896,2.7418 10.79896,9.07425 0,8.55315 9.96023,8.06348 -163.634,8.04468 C 43.867059,371.7817 41.406959,371.7409 38.092389,369.13371 Z M 315.33331,353.85133 c 6.04012,-2.31782 6.05974,-2.6574 6.05974,-104.9055 v -96.53282 l -3.85852,-5.20006 c -2.12219,-2.86002 -29.28863,-30.55005 -60.36986,-61.533397 -51.69349,-51.53067 -56.8882,-56.33333 -60.93176,-56.33333 -3.7559,0 -6.64305,2.05453 -19.2052,13.66666 C 150.00014,67.996513 78.652339,139.25565 74.634219,145.27913 l -3.95769,5.9329 0.35826,98.51626 0.35827,98.51626 3.74101,3.21751 3.74102,3.21751 H 196.02502 c 64.43245,0 118.12119,-0.37271 119.30829,-0.82824 z m -154.8531,-19.18107 c -1.60206,-0.64548 -3.55206,-2.36801 -4.33334,-3.82783 -1.9795,-3.69873 -1.96065,-109.99554 0.0201,-113.69673 2.95389,-5.51941 8.68226,-6.46815 38.84985,-6.43432 30.02451,0.0336 37.49584,0.92127 40.32528,4.79075 1.33036,1.81938 1.9844,14.96092 2.7338,54.93042 1.06895,57.01282 0.71223,61.24247 -5.40005,64.0274 -4.07535,1.85686 -67.64942,2.04206 -72.19571,0.21031 z m 57.48226,-18.08393 c 1.15128,-1.15128 2.44415,-3.49138 2.87304,-5.2002 0.4289,-1.70884 0.57979,-19.95099 0.33534,-40.53812 -0.55962,-47.12858 1.46096,-43.61278 -24.73122,-43.03226 -10.0524,0.22279 -19.37894,0.99478 -20.72566,1.71552 -1.34671,0.72074 -3.01984,2.81302 -3.71808,4.6495 -1.47615,3.88256 -1.70643,77.79294 -0.2491,79.94608 2.47055,3.65009 7.07103,4.47325 25.21768,4.51217 15.43887,0.0331 19.28852,-0.34321 20.998,-2.05269 z M 92.821629,261.91766 c -5.0841,-5.08409 -0.58894,-20.57143 5.97079,-20.57143 5.729001,0 9.944211,13.40006 6.073491,19.30751 -2.56698,3.91771 -8.742461,4.56576 -12.044281,1.26392 z m 30.778071,-0.34308 c -4.71408,-5.209 -0.41257,-20.22835 5.79335,-20.22835 3.4177,0 7.98829,7.26224 7.99501,12.70332 0.0107,8.64362 -8.54863,13.31487 -13.78836,7.52503 z m 133.33333,0 c -4.71408,-5.209 -0.41257,-20.22835 5.79335,-20.22835 3.41771,0 7.98829,7.26224 7.99501,12.70332 0.0107,8.64362 -8.54862,13.31487 -13.78836,7.52503 z m 30.53562,-0.52503 c -2.82856,-4.03834 -2.5989,-10.16204 0.57645,-15.36998 3.21792,-5.27778 6.8564,-5.55971 10.58451,-0.82019 3.38776,4.30683 3.7659,13.96057 0.6682,17.05828 -3.10996,3.10996 -9.3643,2.65097 -11.82916,-0.86811 z M 96.679849,236.96218 c -7.00378,-8.20208 -8.24587,-18.33083 -2.867535,-23.38353 3.875705,-3.64103 6.473586,-3.66578 9.707416,-0.0924 3.81631,4.21697 3.43044,14.08157 -0.79335,20.28193 -3.655831,5.36661 -4.024891,5.56156 -6.046531,3.19403 z m 29.394161,-3.72406 c -5.18286,-5.40974 -6.16224,-13.68106 -2.04866,-18.89189 1.59202,-2.01666 4.00748,-3.66666 5.3677,-3.66666 3.63622,0 8,6.30908 8,11.56626 0,4.34756 -2.24586,10.16566 -4.65114,11.65219 -0.63159,0.39035 -4.618,1.47974 -6.6679,-0.6599 z m 132.38274,-1.27658 c -5.3374,-5.57106 -5.37924,-13.35496 -1.00674,-18.00927 1.691,-1.79998 4.12641,-3.2727 5.41201,-3.2727 3.40515,0 7.75017,3.59688 7.71626,8.40725 -0.0304,4.3142 -2.69515,11.48442 -4.90824,12.85219 -0.69747,0.43107 -5.16338,2.16217 -7.21329,0.0225 z m 32.19337,1.95547 c -6.43416,-7.06411 -7.13619,-13.82223 -2.49363,-19.7243 9.07606,-11.53834 19.75107,6.35502 11.20183,18.93636 -1.85978,2.7369 -4.6246,2.38186 -4.837,2.38186 -0.2124,0 -2.36835,0.0561 -3.8712,-1.59392 z m -99.80069,-54.46529 c -14.46393,-4.72822 -28.71424,-13.69013 -32.15214,-22.77215 -1.94368,-5.13467 -1.92047,-24.09323 0.0384,-31.36791 1.88622,-7.00491 11.96505,-18.12901 19.45425,-21.47186 6.56185,-2.92891 23.9016,-3.66103 32.07885,-1.35443 8.44738,2.38281 18.72974,12.40377 23.4139,22.81867 4.6677,10.37834 4.92848,16.70358 1.10909,26.90195 -5.3726,14.3457 -12.17359,19.39178 -26.20544,24.64153 -8.99121,3.36389 -13.75346,3.90639 -17.73691,2.6042 z m 17.21028,-17.93739 c 1.83334,-1.29802 5.28334,-5.23466 7.66667,-8.74808 5.44944,-8.03338 4.25681,-16.36357 -0.35001,-23.14422 -4.51534,-6.64602 -13.38901,-11.82677 -19.30022,-11.82677 -9.22652,0 -20.35171,9.49996 -22.8323,19.66679 -1.40245,5.74808 2.09284,15.82744 10.4783,23.04141 5.95632,5.1242 17.83116,5.61743 24.33756,1.01087 z m 111.9531,-49.41378 c 0.8674,-1.62076 1.38024,-18.140187 1.38024,-44.460027 0,-50.70879 1.67837,-46.73448 -20.0212,-47.40922 -20.89046,-0.64959 -19.9788,-2.12627 -19.9788,32.36145 0,15.99334 0.58524,28.79677 1.417,31 0.77934,2.06441 7.61886,9.90347 15.19894,17.420127 14.46324,14.34226 19.03036,16.64362 22.00382,11.08767 z"
     id="path4495"
     inkscape:connector-curvature="0"
     sodipodi:nodetypes="cscscscssscsscsccsccscssccscscssssccsccsssscccccsccccccscccscsccccsscsccsscssscsscscscccsccccssccccsccccccsccccsscssccccscscccsscscc" />
</svg>
