<?xml version="1.0" encoding="UTF-8" standalone="no"?>
<!-- Created with Inkscape (http://www.inkscape.org/) -->

<svg
   xmlns:dc="http://purl.org/dc/elements/1.1/"
   xmlns:cc="http://creativecommons.org/ns#"
   xmlns:rdf="http://www.w3.org/1999/02/22-rdf-syntax-ns#"
   xmlns:svg="http://www.w3.org/2000/svg"
   xmlns="http://www.w3.org/2000/svg"
   xmlns:sodipodi="http://sodipodi.sourceforge.net/DTD/sodipodi-0.dtd"
   xmlns:inkscape="http://www.inkscape.org/namespaces/inkscape"
   version="1.1"
   id="svg5048"
   width="16"
   height="12"
   viewBox="0 0 300.8 225.6"
   sodipodi:docname="mail.svg"
   inkscape:version="0.92.1 r15371">
  <metadata
     id="metadata5054">
    <rdf:RDF>
      <cc:Work
         rdf:about="">
        <dc:format>image/svg+xml</dc:format>
        <dc:type
           rdf:resource="http://purl.org/dc/dcmitype/StillImage" />
        <dc:title></dc:title>
      </cc:Work>
    </rdf:RDF>
  </metadata>
  <defs
     id="defs5052" />
  <sodipodi:namedview
     pagecolor="#ffffff"
     bordercolor="#666666"
     borderopacity="1"
     objecttolerance="10"
     gridtolerance="10"
     guidetolerance="10"
     inkscape:pageopacity="0"
     inkscape:pageshadow="2"
     inkscape:window-width="1920"
     inkscape:window-height="1017"
     id="namedview5050"
     showgrid="false"
     scale-x="18.8"
     inkscape:zoom="42.64011"
     inkscape:cx="8.897074"
     inkscape:cy="5.945422"
     inkscape:window-x="-8"
     inkscape:window-y="-8"
     inkscape:window-maximized="1"
     inkscape:current-layer="svg5048" />
  <path
     style="fill:#0c0c0c"
     d="m 0.39664426,153.22606 v -72.5995 l 8.82986014,0.3495 c 8.0532186,0.31876 9.1584186,0.61337 12.5652286,3.3495 9.03114,7.253219 11.19733,8.521569 21.1248,12.368949 5.77356,2.237529 13.08099,5.819041 16.23875,7.958901 7.01354,4.75274 11.38722,6.99144 21.67505,11.09454 4.36352,1.74031 10.88852,5.28035 14.5,7.86676 3.611464,2.58641 13.091307,8.03079 21.066307,12.09862 7.975,4.06783 16.74899,8.5697 19.49776,10.00414 4.36388,2.27729 6.20327,2.60809 14.50224,2.60809 8.29897,0 10.13836,-0.3308 14.50224,-2.60809 2.74877,-1.43444 11.52276,-5.93631 19.49776,-10.00414 7.975,-4.06783 17.45484,-9.51221 21.06632,-12.09862 3.61147,-2.58641 10.13647,-6.12645 14.5,-7.86676 10.28782,-4.1031 14.6615,-6.3418 21.67505,-11.09454 3.15775,-2.13986 10.46519,-5.721372 16.23875,-7.958901 9.92746,-3.84738 12.09365,-5.11573 21.1248,-12.368949 3.40681,-2.73613 4.51201,-3.03074 12.56522,-3.3495 l 8.82986,-0.3495 v 72.5995 72.5995 h -150 H 0.39664426 Z M 139.78382,108.99302 c -2.81205,-0.97199 -8.21205,-3.8806 -12,-6.4636 -3.78795,-2.582994 -11.723,-6.691201 -17.63345,-9.129351 C 99.864307,89.156899 95.276423,86.61187 90.888803,82.71513 c -1.10431,-0.98076 -7.92554,-4.71528 -15.15829,-8.29892 -7.23275,-3.58365 -15.87368,-8.27583 -19.20208,-10.42708 -3.32839,-2.15124 -10.8127,-5.82485 -16.63179,-8.16357 -5.81909,-2.33873 -13.26703,-5.98883 -16.55098,-8.11135 C 13.765213,41.52206 9.8061944,39.82556 4.9364843,39.82556 H 0.39664426 v -19.5 V 0.82556132 H 150.39664 h 150 V 20.32556 v 19.5 h -4.53984 c -4.86971,0 -8.82873,1.6965 -18.40918,7.88865 -3.28395,2.12252 -10.73189,5.77262 -16.55098,8.11135 -5.81909,2.33872 -13.30339,6.01233 -16.63179,8.16357 -3.32839,2.15125 -11.74785,6.73497 -18.70992,10.18606 -6.96206,3.45109 -14.90829,8.00231 -17.65829,10.11383 -4.95429,3.80402 -11.11967,6.911959 -21.24429,10.709129 -2.88437,1.08176 -8.95937,4.425879 -13.5,7.431371 -12.72552,8.42315 -22.45289,10.33649 -33.36853,6.5635 z"
     id="path5058"
     inkscape:connector-curvature="0" />
</svg>
