<?xml version="1.0" encoding="UTF-8" standalone="no"?>
<!-- Created with Inkscape (http://www.inkscape.org/) -->

<svg
   xmlns:dc="http://purl.org/dc/elements/1.1/"
   xmlns:cc="http://creativecommons.org/ns#"
   xmlns:rdf="http://www.w3.org/1999/02/22-rdf-syntax-ns#"
   xmlns:svg="http://www.w3.org/2000/svg"
   xmlns="http://www.w3.org/2000/svg"
   xmlns:sodipodi="http://sodipodi.sourceforge.net/DTD/sodipodi-0.dtd"
   xmlns:inkscape="http://www.inkscape.org/namespaces/inkscape"
   version="1.1"
   id="svg4485"
   width="18"
   height="18"
   viewBox="0 0 297 297"
   sodipodi:docname="phone.svg"
   inkscape:version="0.92.1 r15371">
  <metadata
     id="metadata4491">
    <rdf:RDF>
      <cc:Work
         rdf:about="">
        <dc:format>image/svg+xml</dc:format>
        <dc:type
           rdf:resource="http://purl.org/dc/dcmitype/StillImage" />
        <dc:title></dc:title>
      </cc:Work>
    </rdf:RDF>
  </metadata>
  <defs
     id="defs4489" />
  <sodipodi:namedview
     pagecolor="#ffffff"
     bordercolor="#666666"
     borderopacity="1"
     objecttolerance="10"
     gridtolerance="10"
     guidetolerance="10"
     inkscape:pageopacity="0"
     inkscape:pageshadow="2"
     inkscape:window-width="1920"
     inkscape:window-height="1017"
     id="namedview4487"
     showgrid="false"
     scale-x="16.5"
     inkscape:zoom="11.306667"
     inkscape:cx="-8.9391134"
     inkscape:cy="20.675057"
     inkscape:window-x="-8"
     inkscape:window-y="-8"
     inkscape:window-maximized="1"
     inkscape:current-layer="svg4485" />
  <path
     style="fill:#151515"
     d="m 203.19399,295.44031 c 0,-4.69288 0.36972,-4.48852 -20.88933,-11.54657 -8.80273,-2.92252 -16.43665,-6.23815 -21.61067,-9.38612 -4.4,-2.67704 -11.375,-6.26143 -15.5,-7.96532 -4.125,-1.70388 -9.87024,-5.04358 -12.7672,-7.42155 -2.89697,-2.37796 -8.74697,-6.26573 -13,-8.63949 -4.25304,-2.37375 -10.6578,-6.87867 -14.2328,-10.01093 -3.575,-3.13226 -8.525004,-7.08765 -11.000004,-8.78976 -5.75387,-3.95706 -22.78632,-21.34136 -26.83596,-27.39032 -1.70727,-2.55015 -5.2843,-7.05015 -7.94896,-10 -2.66466,-2.94985 -6.50118,-8.35797 -8.5256,-12.01804 -2.02441,-3.66008 -5.57756,-9.05432 -7.89587,-11.98721 -2.31832,-2.93289 -6.37836,-9.50467 -9.02231,-14.60396 -2.64396,-5.09929 -6.36592,-11.7081 -8.27102,-14.68626 -1.9051,-2.97815 -4.41222,-8.48676 -5.57139,-12.24135 -1.15916,-3.7546 -4.01242,-12.22654 -6.34058,-18.82654 l -4.2330101,-12.000002 -4.17765,-0.3075 -4.17765,-0.3075 V 48.369391 -0.57310798 h 46.0000001 46 V 3.466721 c 0,2.22191 0.96941,5.9344099 2.15425,8.25 1.76099,3.44159 2.31035,6.94845 3.00933,19.21017 0.4703,8.25 2.029944,22.17377 3.465874,30.94172 2.8009,17.10266 2.76049,23.93545 -0.17566,29.69576 -0.94267,1.84938 -8.127034,9.662519 -15.965244,17.362519 -7.83821,7.7 -14.75468,14.98292 -15.36992,16.18426 -0.61525,1.20134 -1.11863,4.583 -1.11863,7.51481 0,6.00186 2.08902,10.67214 7.96237,17.80093 2.03913,2.475 5.63047,7.3595 7.98076,10.85444 5.37843,7.99789 42.397674,45.14431 50.975764,51.1509 3.53039,2.47206 9.2283,6.83506 12.66201,9.69555 8.79866,7.32983 12.8689,9.29911 19.22003,9.29911 2.93181,0 6.31347,-0.50338 7.51481,-1.11863 1.20134,-0.61524 8.51112,-7.57742 16.24394,-15.4715 8.59232,-8.7715 15.48224,-14.94726 17.71788,-15.88138 5.8147,-2.42953 14.8156,-1.79899 35.72244,2.5025 10.725,2.20662 24.45,4.46326 30.5,5.01477 6.05,0.55151 12.575,1.43932 14.5,1.97292 1.925,0.53359 5.1875,0.97268 7.25,0.97574 l 3.75,0.006 v 45 45 h -49 -49 z"
     id="path4495"
     inkscape:connector-curvature="0" />
</svg>
