<?xml version="1.0" encoding="UTF-8" standalone="no"?>
<!-- Created with Inkscape (http://www.inkscape.org/) -->

<svg
   xmlns:dc="http://purl.org/dc/elements/1.1/"
   xmlns:cc="http://creativecommons.org/ns#"
   xmlns:rdf="http://www.w3.org/1999/02/22-rdf-syntax-ns#"
   xmlns:svg="http://www.w3.org/2000/svg"
   xmlns="http://www.w3.org/2000/svg"
   xmlns:sodipodi="http://sodipodi.sourceforge.net/DTD/sodipodi-0.dtd"
   xmlns:inkscape="http://www.inkscape.org/namespaces/inkscape"
   version="1.1"
   id="svg4783"
   width="22"
   height="22"
   viewBox="0 0 253 253"
   sodipodi:docname="radio-checked.svg"
   inkscape:version="0.92.1 r15371">
  <metadata
     id="metadata4789">
    <rdf:RDF>
      <cc:Work
         rdf:about="">
        <dc:format>image/svg+xml</dc:format>
        <dc:type
           rdf:resource="http://purl.org/dc/dcmitype/StillImage" />
        <dc:title></dc:title>
      </cc:Work>
    </rdf:RDF>
  </metadata>
  <defs
     id="defs4787" />
  <sodipodi:namedview
     pagecolor="#ffffff"
     bordercolor="#666666"
     borderopacity="1"
     objecttolerance="10"
     gridtolerance="10"
     guidetolerance="10"
     inkscape:pageopacity="0"
     inkscape:pageshadow="2"
     inkscape:window-width="1920"
     inkscape:window-height="1017"
     id="namedview4785"
     showgrid="false"
     scale-x="11.5"
     inkscape:zoom="10.012632"
     inkscape:cx="-13.002929"
     inkscape:cy="29.341858"
     inkscape:window-x="-8"
     inkscape:window-y="-8"
     inkscape:window-maximized="1"
     inkscape:current-layer="svg4783" />
  <path
     style="fill:#333333;stroke-width:1.33333325"
     d="m 106.66421,250.83217 c -4.03335,-0.95994 -11.233355,-2.48487 -16.000013,-3.38874 -4.76667,-0.90386 -10.84714,-3.06608 -13.51215,-4.80493 -2.66502,-1.73885 -8.66502,-4.95121 -13.33334,-7.13859 -16.275398,-7.62594 -37.513528,-28.60785 -45.404058,-44.85629 -2.13672,-4.4 -5.29224,-10.32941 -7.01227,-13.17648 -1.7200397,-2.84706 -3.8394097,-8.84706 -4.7097197,-13.33333 -0.87031,-4.48627 -2.53112,-11.60685 -3.6906896,-15.82352 -1.7995,-6.54373 -1.81547,-5.11989 -2.47650995,-7.26717 -0.89927,-2.92115 -0.81763,-0.94865 -0.81763,-14.03245 0,-12.98771 -1.08888005,-10.24051 0.24155,-12.8839 1.83474995,-3.64539 1.09805995,-1.34746 3.09942995,-9.14981 1.2697096,-4.95 3.1908296,-14.042483 4.2691396,-20.205514 1.07831,-6.16303 2.8684897,-12.46303 3.9781697,-14 1.10968,-1.53697 4.72946,-6.875569 8.04395,-11.863549 7.74086,-11.64921 28.60586,-32.51421 40.255068,-40.255069 4.98798,-3.31449 10.3305,-6.93688 11.87226,-8.04974 1.54177,-1.1128599 6.64177,-2.6391499 11.33334,-3.3917599 4.69157,-0.7526 13.780118,-2.67554 20.196793,-4.2732 10.38937,-2.58679027 -0.49286,0.52756 12.01979,-4.3793206 2.74339,-1.07584 0.0759,-0.17981 13.05083,-0.1327 12.83898,0.0466 11.49717,-1.13389 12.83898,0.0466 2.07859,1.82873033 1.61491,1.96409033 12.0904,4.5424006 6.41667,1.57932 13.76667,3.25245 16.33333,3.71806 2.56667,0.46562 7.62839,2.72018 11.24827,5.0101399 3.61987,2.28997 9.36704,5.45409 12.77148,7.03139 8.27562,3.834159 23.60334,17.201119 32.47666,28.322199 3.96423,4.96843 10.32618,14.99465 14.13767,22.280489 5.86083,11.20324 7.42533,15.8198 10.14069,29.923261 1.76588,9.171963 3.21071,21.476293 3.21071,27.342953 0,15.0174 -5.72511,43.8013 -9.99557,50.25442 -1.84162,2.78285 -4.81248,8.37032 -6.60194,12.41658 -7.57209,17.12184 -30.09556,39.643 -46.46186,46.45711 -3.80936,1.58602 -9.89505,4.65776 -13.52377,6.82606 -12.40943,7.41514 -53.31374,12.22214 -70.06899,8.23438 z"
     id="path5336"
     inkscape:connector-curvature="0"
     sodipodi:nodetypes="scccscssssscsscscsssssssccsscsccccs" />
</svg>
