<?xml version="1.0" encoding="UTF-8" standalone="no"?>
<!-- Created with Inkscape (http://www.inkscape.org/) -->

<svg
   xmlns:dc="http://purl.org/dc/elements/1.1/"
   xmlns:cc="http://creativecommons.org/ns#"
   xmlns:rdf="http://www.w3.org/1999/02/22-rdf-syntax-ns#"
   xmlns:svg="http://www.w3.org/2000/svg"
   xmlns="http://www.w3.org/2000/svg"
   xmlns:sodipodi="http://sodipodi.sourceforge.net/DTD/sodipodi-0.dtd"
   xmlns:inkscape="http://www.inkscape.org/namespaces/inkscape"
   version="1.1"
   id="svg4519"
   width="18"
   height="14"
   viewBox="0 0 1216.8 946.4"
   sodipodi:docname="twitter.svg"
   inkscape:version="0.92.1 r15371">
  <metadata
     id="metadata4525">
    <rdf:RDF>
      <cc:Work
         rdf:about="">
        <dc:format>image/svg+xml</dc:format>
        <dc:type
           rdf:resource="http://purl.org/dc/dcmitype/StillImage" />
        <dc:title></dc:title>
      </cc:Work>
    </rdf:RDF>
  </metadata>
  <defs
     id="defs4523" />
  <sodipodi:namedview
     pagecolor="#0000ff"
     bordercolor="#666666"
     borderopacity="1"
     objecttolerance="10"
     gridtolerance="10"
     guidetolerance="10"
     inkscape:pageopacity="0"
     inkscape:pageshadow="2"
     inkscape:window-width="1920"
     inkscape:window-height="1017"
     id="namedview4521"
     showgrid="false"
     scale-x="67.6"
     inkscape:zoom="16.085359"
     inkscape:cx="-7.1673002"
     inkscape:cy="11.100574"
     inkscape:window-x="-8"
     inkscape:window-y="-8"
     inkscape:window-maximized="1"
     inkscape:current-layer="svg4519" />
  <path
     style="fill:#ffffff;fill-opacity:1"
     d="m 379.8601,931.36187 c -42.80438,-2.9026 -74.22929,-7.3059 -110.38919,-15.4678 -67.9678,-15.3414 -134.039,-41.9612 -195.110798,-78.6092 -15.3024,-9.1826 -17.3898,-10.709 -13.5,-9.8719 12.682,2.7294 68.067098,3.7512 90.999998,1.6787 82.9445,-7.4955 157.7445,-33.5975 224.31774,-78.2773 12.70426,-8.5263 26.68225,-18.9919 26.68225,-19.9775 0,-0.4512 -3.04931,-0.8204 -6.77623,-0.8204 -15.32476,0 -41.84827,-4.8573 -60.41471,-11.0638 -60.22205,-20.1316 -109.16945,-62.8599 -136.81975,-119.43616 -7.8889,-16.14168 -13.8007,-32.02535 -11.6063,-31.18328 0.7729,0.29659 7.4119,1.30379 14.7534,2.23822 24.8213,3.15928 61.3024,1.0098 83.3636,-4.91181 l 5,-1.34209 -4,-1.14494 c -2.2,-0.62972 -4.5691,-1.14746 -5.2646,-1.15052 -3.5162,-0.0155 -32.6066,-10.56694 -43.4048,-15.74341 -62.2655,-29.84904 -108.4664,-85.50584 -125.9107,-151.68059 -3.5269,-13.37913 -6.5357,-33.69482 -7.4643,-50.39915 l -0.6847,-12.31758 8.8645,4.44264 c 14.3024,7.16789 31.6428,13.58632 47.7913,17.68965 14.7301,3.74288 35.3097,7.00286 44.2078,7.00286 h 4.4511 l -10.2928,-7.74962 c -41.631,-31.34465 -72.5635,-78.02782 -85.3104,-128.75042 -5.2742,-20.9869 -6.8486,-34.2331 -6.8342,-57.5 0.02,-31.9596 4.5771,-57.2291 15.269,-84.664498 4.5344,-11.635299 14.7257,-32.335499 15.9197,-32.335499 0.4512,0 4.9055,4.8375 9.8987,10.75 45.5786,53.970997 104.3547,103.401997 168.2644,141.511197 19.15339,11.4212 62.37546,33.0808 82.23454,41.2098 63.35824,25.9345 127.27917,41.7709 193.70283,47.99 17.98906,1.6843 27.07983,1.9497 27.03119,0.789 -0.0173,-0.4125 -0.94781,-5.7 -2.06782,-11.75 -2.62509,-14.1799 -3.71325,-51.2671 -1.95376,-66.5883 5.03588,-43.8511 23.35959,-87.3944 51.16586,-121.587198 37.78445,-46.462899 94.6548,-77.470899 154.74005,-84.3705991 13.8148,-1.5864 51.4412,-0.7232 64.1471,1.4716 47.502,8.2053001 90.4209,29.5999001 123.2791,61.4531001 l 9.7791,9.479999 12.2209,-2.782499 c 43.9794,-10.0134 87.2461,-26.6776 127.4709,-49.0957 4.5375,-2.5289 8.25,-4.3268 8.25,-3.9955 0,2.059 -8.1292,21.8422 -12.9626,31.5457 -18.1851,36.508499 -44.5941,66.831297 -77.9855,89.543097 -11.289,7.6785 -11.028,7.766 11.6368,3.8998 34.7771,-5.9322 73.4226,-17.4017 107.7,-31.9641 l 3.8887,-1.6521 -4.8233,6.8214 c -29.2641,41.387 -63.7483,77.4985 -102.3211,107.1499 l -9.3671,7.2006 -0.2665,32.7354 c -0.3751,46.07677 -3.8671,80.8121 -12.4894,124.23544 -35.2972,177.76304 -140.3837,336.97986 -285.4243,432.44716 -94.73919,62.3585 -200.82683,96.7908 -322.06863,104.5323 -14.23804,0.9091 -69.82708,1.1587 -81.51707,0.3659 z"
     id="path4529"
     inkscape:connector-curvature="0" />
</svg>
