<?xml version="1.0" encoding="UTF-8" standalone="no"?>
<!-- Created with Inkscape (http://www.inkscape.org/) -->

<svg
   xmlns:dc="http://purl.org/dc/elements/1.1/"
   xmlns:cc="http://creativecommons.org/ns#"
   xmlns:rdf="http://www.w3.org/1999/02/22-rdf-syntax-ns#"
   xmlns:svg="http://www.w3.org/2000/svg"
   xmlns="http://www.w3.org/2000/svg"
   xmlns:sodipodi="http://sodipodi.sourceforge.net/DTD/sodipodi-0.dtd"
   xmlns:inkscape="http://www.inkscape.org/namespaces/inkscape"
   version="1.1"
   id="svg10"
   width="20"
   height="14"
   viewBox="0 0 532 372.4"
   sodipodi:docname="Youtube.svg"
   inkscape:version="0.92.1 r15371">
  <metadata
     id="metadata16">
    <rdf:RDF>
      <cc:Work
         rdf:about="">
        <dc:format>image/svg+xml</dc:format>
        <dc:type
           rdf:resource="http://purl.org/dc/dcmitype/StillImage" />
        <dc:title></dc:title>
      </cc:Work>
    </rdf:RDF>
  </metadata>
  <defs
     id="defs14" />
  <sodipodi:namedview
     pagecolor="#0000ff"
     bordercolor="#666666"
     borderopacity="1"
     objecttolerance="10"
     gridtolerance="10"
     guidetolerance="10"
     inkscape:pageopacity="0"
     inkscape:pageshadow="2"
     inkscape:window-width="1920"
     inkscape:window-height="1017"
     id="namedview12"
     showgrid="false"
     scale-x="26.6"
     inkscape:zoom="51.580778"
     inkscape:cx="10.459649"
     inkscape:cy="7.6995756"
     inkscape:window-x="-8"
     inkscape:window-y="-8"
     inkscape:window-maximized="1"
     inkscape:current-layer="svg10" />
  <path
     style="fill:#ffffff;fill-opacity:1;stroke-width:1.33333337"
     d="M 204.17346,370.32089 C 116.16353,368.61447 77.036054,366.09675 58.840134,360.96921 42.116628,356.25658 26.977878,343.90203 19.793609,329.10383 6.9110588,302.56829 4.2439182,278.01358 4.2246882,185.7705 4.2052882,92.837201 6.8474988,69.010654 20.216509,41.559764 28.065538,25.443164 44.575128,12.922144 63.840114,8.4752041 86.567514,3.2290438 172.71243,0.62411359 294.79102,1.4914936 c 149.04772,1.059 176.09271,3.2130607 195.2748,15.5531204 7.21167,4.63934 17.25924,14.82944 21.09335,21.39255 3.73494,6.39338 9.47613,22.81921 11.64348,33.31257 6.2795,30.402736 9.1929,111.859526 6.00946,168.020766 -2.47648,43.68921 -4.94185,60.73049 -11.38381,78.68743 -4.95915,13.82364 -8.87387,20.0574 -17.74377,28.25504 -8.82535,8.15645 -19.13368,13.5719 -31.09272,16.33446 -23.77956,5.49312 -161.23319,9.27411 -264.41835,7.27346 z M 314.07959,201.47841 c 20.84836,-10.83935 38.08338,-20.30791 38.30002,-21.04124 0.21664,-0.73334 -8.14112,-5.7456 -18.5728,-11.13836 -10.43167,-5.39276 -41.16668,-21.40971 -68.30002,-35.59322 -27.13333,-14.1835 -50.38333,-26.18544 -51.66666,-26.67097 -2.20486,-0.83416 -2.33334,3.20419 -2.33334,73.33881 v 74.22156 l 32.33334,-16.70433 c 17.78333,-9.1874 49.39109,-25.57291 70.23946,-36.41225 z"
     id="path20"
     inkscape:connector-curvature="0" />
</svg>
