<?xml version="1.0" encoding="UTF-8" standalone="no"?>
<!-- Created with Inkscape (http://www.inkscape.org/) -->

<svg
   xmlns:dc="http://purl.org/dc/elements/1.1/"
   xmlns:cc="http://creativecommons.org/ns#"
   xmlns:rdf="http://www.w3.org/1999/02/22-rdf-syntax-ns#"
   xmlns:svg="http://www.w3.org/2000/svg"
   xmlns="http://www.w3.org/2000/svg"
   xmlns:sodipodi="http://sodipodi.sourceforge.net/DTD/sodipodi-0.dtd"
   xmlns:inkscape="http://www.inkscape.org/namespaces/inkscape"
   version="1.1"
   id="svg4485"
   width="22"
   height="20"
   viewBox="0 0 352 320"
   sodipodi:docname="basket.svg"
   inkscape:version="0.92.1 r15371">
  <metadata
     id="metadata4491">
    <rdf:RDF>
      <cc:Work
         rdf:about="">
        <dc:format>image/svg+xml</dc:format>
        <dc:type
           rdf:resource="http://purl.org/dc/dcmitype/StillImage" />
        <dc:title></dc:title>
      </cc:Work>
    </rdf:RDF>
  </metadata>
  <defs
     id="defs4489" />
  <sodipodi:namedview
     pagecolor="#ffffff"
     bordercolor="#666666"
     borderopacity="1"
     objecttolerance="10"
     gridtolerance="10"
     guidetolerance="10"
     inkscape:pageopacity="0"
     inkscape:pageshadow="2"
     inkscape:window-width="1920"
     inkscape:window-height="1017"
     id="namedview4487"
     showgrid="false"
     scale-x="16"
     inkscape:zoom="14.192344"
     inkscape:cx="24.329978"
     inkscape:cy="15.437519"
     inkscape:window-x="-8"
     inkscape:window-y="-8"
     inkscape:window-maximized="1"
     inkscape:current-layer="svg4485" />
  <path
     style="fill:#070707"
     d="m 136.87198,318.14304 c -0.825,-0.53316 -2.30912,-0.97627 -3.29804,-0.98469 -3.34943,-0.0285 -12.52355,-6.85853 -16.39183,-12.2035 -5.48379,-7.5772 -6.74478,-11.81947 -6.78064,-22.81181 -0.017,-5.225 -0.37052,-10.02334 -0.78549,-10.66299 -0.41496,-0.63964 -2.5889,-1.47291 -4.83097,-1.8517 -12.407719,-2.09627 -24.341799,-14.94611 -26.794189,-28.85024 -3.0614,-17.35698 6.88307,-34.79796 23.156789,-40.61321 3.32042,-1.18652 4.35046,-3.37011 2.9904,-6.33932 -0.95161,-2.07747 -2.36676,-6.9964 -4.224119,-14.68254 -0.46517,-1.925 -1.31219,-4.85 -1.88225,-6.5 -0.57007,-1.65 -1.56693,-5.025 -2.21524,-7.5 -0.64832,-2.475 -1.84148,-6.75 -2.65148,-9.5 -2.53505,-8.60663 -4.01752,-13.84319 -5.23735,-18.5 -0.64832,-2.475 -1.64517,-5.85 -2.21524,-7.5 -0.57006,-1.65 -1.40659,-4.575 -1.85894,-6.5 -0.45236,-1.925 -1.56899,-5.975 -2.48141,-9 -0.91241,-3.025 -2.0501,-7.075 -2.52818,-9 -0.47809,-1.925 -1.56733,-5.862503 -2.42053,-8.750003 -0.85321,-2.8875 -2.24936,-7.61249 -3.10257,-10.49999 -0.85321,-2.8875 -1.95293,-6.825 -2.44384,-8.75 -2.55892,-10.03433 -3.31637,-12.65007 -4.12249,-14.23644 -0.48531,-0.95503 -0.88016,-2.53003 -0.87744,-3.5 0.003,-0.96996 -0.64034,-3.78856 -1.42903,-6.26356 -0.78869,-2.475 -2.19692,-7.2 -3.12939,-10.499998 -0.93248,-3.3 -2.08941,-6.7814 -2.57097,-7.73644 -0.48155,-0.95503 -0.87556,-2.7674 -0.87556,-4.02749 0,-1.26008 -0.70051,-3.29119 -1.5567,-4.51357 -1.52751,-2.18082 -1.96458,-2.2225 -23.30383,-2.2225 H 11.26432 l -3.1961701,-3.29761 c -4.51848,-4.6619 -4.49831,-10.06514 0.0538,-14.4172498 3.8547201,-3.68533 3.0188701,-3.60594 36.0000011,-3.41944 l 23.75,0.1343 3.75,3.80432 c 3.6423,3.6950698 7.31405,12.6595798 7.2684,17.7456798 -0.0101,1.1275 0.4058,2.4775 0.92426,3 0.89734,0.90433 2.24263,5.5196 3.98149,13.65921 0.43581,2.04007 1.56637,4.890458 2.51234,6.334198 1.53373,2.34076 1.90097,2.46759 3.39174,1.17135 0.91947,-0.79949 3.02177,-1.82773 4.67177,-2.28497 1.65,-0.45723 51.599999,-0.98465 111.000009,-1.17203 111.03084,-0.35026 110.35709,-0.3701 119.80647,3.52704 5.25772,2.1684 14.257,12.07474 15.11268,16.63593 0.36931,1.96859 1.10109,3.57927 1.62616,3.57927 1.29447,0 1.22917,14.74183 -0.0672,15.17396 -0.56204,0.18735 -1.4816,2.81235 -2.04347,5.83333 -0.56186,3.02098 -1.36609,7.30915 -1.78718,9.52927 -0.42108,2.220113 -1.17137,4.693113 -1.66731,5.495563 -0.49594,0.80244 -1.2246,3.48599 -1.61925,5.96343 -0.39465,2.47744 -1.46255,7.20444 -2.37312,10.50444 -0.91056,3.3 -2.03846,7.8 -2.50644,10 -0.46798,2.2 -1.37564,6.025 -2.01702,8.5 -0.64138,2.475 -1.59808,6.3 -2.126,8.5 -0.52792,2.2 -1.58595,6.25 -2.35118,9 -0.76523,2.75 -1.61122,6.125 -1.87997,7.5 -0.26875,1.375 -1.01072,4.525 -1.64882,7 -0.63809,2.475 -1.58718,6.3 -2.10907,8.5 -0.5219,2.2 -1.60149,6.0854 -2.39909,8.63421 -0.7976,2.54882 -1.45018,5.57105 -1.45018,6.71608 0,2.3589 -2.86675,8.98028 -4.75,10.97114 -0.6875,0.72678 -1.25,1.70916 -1.25,2.18305 0,1.96821 -9.33265,8.29439 -15.57815,10.55973 l -6.71546,2.43579 h -88.74961 -88.74962 l -3.08914,3.51834 c -3.89657,4.43796 -4.75266,7.81684 -3.13731,12.38263 1.75429,4.95851 2.83029,6.08909 7.83801,8.23566 4.11341,1.76321 8.42184,1.86337 80.15496,1.86337 84.14149,0 77.78314,-0.48457 88.15907,6.7186 4.94752,3.43467 11.84411,12.14543 11.90268,15.03371 0.0195,0.96123 0.67854,2.87269 1.46456,4.24769 1.99658,3.49266 1.91215,14.98402 -0.14487,19.71607 -3.71636,8.54929 -5.04712,10.73601 -9.08412,14.92707 -2.32594,2.41471 -5.25094,4.83177 -6.5,5.37123 -1.24905,0.53947 -2.94601,1.38842 -3.77101,1.88655 -5.0976,3.07791 -17.61952,3.82129 -26.5,1.57321 -5.07609,-1.285 -13.47062,-7.51442 -17.34831,-12.87384 -5.73699,-7.9292 -7.5216,-14.18976 -6.89732,-24.19633 l 0.52431,-8.40396 H 200.7613 c -17.5214,0 -20.88935,0.23233 -20.88935,1.44098 0,0.79254 0.45,1.7191 1,2.05902 1.57689,0.97457 1.17853,13.81332 -0.56248,18.12788 -3.32865,8.24905 -4.49422,10.11722 -9.18755,14.72576 -5.96782,5.86001 -8.14876,7.21307 -15.32097,9.50515 -4.3415,1.38744 -16.85612,1.4808 -18.929,0.14121 z m 14.5285,-24.01761 c 7.23861,-4.47371 8.6241,-11.91523 3.3987,-18.25455 -2.90583,-3.52527 -3.38926,-3.72784 -8.89641,-3.72784 -5.41446,0 -6.04165,0.24834 -8.9272,3.5348 -5.63376,6.4165 -3.77853,14.91204 4.10494,18.79744 4.34886,2.14336 6.39828,2.07388 10.31997,-0.34985 z m 111.00001,0 c 7.23861,-4.47371 8.6241,-11.91523 3.3987,-18.25455 -2.88372,-3.49844 -3.41923,-3.72784 -8.7024,-3.72784 -4.97739,0 -6.01162,0.37028 -8.92719,3.19617 -2.80292,2.71669 -3.29761,3.89658 -3.29761,7.86514 0,5.39227 2.17232,8.78881 7.20853,11.27093 4.34886,2.14336 6.39828,2.07388 10.31997,-0.34985 z M 152.50926,196.92091 c 1.06508,-1.72333 0.44958,-8.28023 -1.22201,-13.01802 -0.7784,-2.20622 -1.41527,-5.21473 -1.41527,-6.68558 0,-4.55206 -1.46138,-5.07427 -14.2,-5.07427 h -11.8 v 3.45295 c 0,1.89912 0.41381,4.48662 0.91957,5.75 0.50577,1.26338 1.66116,4.72453 2.56755,7.69145 2.44091,7.98999 4.18793,9.03246 15.20386,9.07233 6.19403,0.0224 9.43728,-0.36524 9.9463,-1.18886 z m 43.17158,-0.52787 c 1.21855,-2.42539 1.29756,-20.18265 0.0998,-22.42075 -0.85281,-1.59343 -2.3281,-1.82925 -11.44384,-1.82925 h -10.46482 v 3.37788 c 0,1.85783 0.675,4.99337 1.5,6.96788 0.825,1.9745 1.5,4.9768 1.5,6.67178 0,1.69498 0.68656,4.40943 1.52568,6.03212 1.48206,2.866 1.73835,2.95034 8.96482,2.95034 6.08328,0 7.59939,-0.31895 8.31836,-1.75 z m 44.4657,-1.75 c 1.66135,-5.45675 3.90853,-15.9518 4.06825,-19 l 0.1572,-3 -11.41976,-0.28434 c -8.46341,-0.21073 -11.63073,0.0481 -12.23469,1 -1.35168,2.13027 -1.02018,22.20971 0.38995,23.61984 0.83558,0.83558 3.96908,1.14308 9.68059,0.95 8.42113,-0.28469 8.44768,-0.29401 9.35846,-3.2855 z m 46.72407,1.7022 c 3.10692,-2.51583 6.65745,-12.81739 7.30755,-21.2022 l 0.19383,-2.5 h -12.48304 -12.48303 l -0.71969,3.5 c -3.48676,16.95696 -3.90435,20.32662 -2.62,21.14121 0.71817,0.45549 5.19341,0.83506 9.94498,0.84348 6.84128,0.0121 9.10126,-0.35884 10.8594,-1.78249 z M 142.277,147.29673 c 0.28767,-0.46547 0.0684,-3.27797 -0.48723,-6.25 -0.55565,-2.97203 -1.4061,-7.8064 -1.8899,-10.74303 -1.44601,-8.77733 -2.16197,-9.14983 -17.07959,-8.88642 -7.03208,0.12417 -13.05817,0.49922 -13.39131,0.83345 -0.33314,0.33423 0.11943,3.25923 1.00571,6.5 0.88627,3.24077 2.04255,7.69231 2.56949,9.89231 0.52695,2.2 1.49762,5.2375 2.15706,6.75 l 1.19897,2.75 h 12.69687 c 6.98328,0 12.93225,-0.38084 13.21993,-0.84631 z m 53.0132,0.23932 c 1.31933,-0.50627 1.58179,-2.57452 1.58179,-12.46482 0,-10.27916 -0.23298,-11.97921 -1.75,-12.76957 -2.3015,-1.19907 -29.35017,-1.44614 -31.12671,-0.28431 -1.14456,0.74852 -1.17124,1.97321 -0.15825,7.26301 0.67015,3.49947 1.60663,8.54183 2.08107,11.20524 1.34788,7.56673 1.53144,7.65744 15.49454,7.65744 6.76267,0 13.00758,-0.27314 13.87756,-0.60699 z m 55.85658,-3.39301 c 0.46997,-1.925 1.23953,-5.75 1.71014,-8.5 0.47061,-2.75 1.38883,-6.4719 2.04047,-8.27089 2.08432,-5.75413 0.848,-6.22911 -16.21359,-6.22911 -8.38844,0 -15.79175,0.45408 -16.87755,1.03518 -1.74455,0.93366 -1.93426,2.19231 -1.93426,12.83334 0,6.48898 0.31153,12.10968 0.6923,12.49045 0.38076,0.38076 7.22533,0.56826 15.21015,0.41666 l 14.51786,-0.27563 z m 49.89647,2.34501 c 1.00581,-0.91024 1.82874,-2.94969 1.82874,-4.53212 0,-1.58242 0.675,-4.49263 1.5,-6.46713 0.825,-1.97451 1.5,-4.68964 1.5,-6.03363 0,-1.34399 0.45572,-3.29513 1.01271,-4.33588 0.79921,-1.49333 0.60224,-2.11195 -0.93426,-2.93426 -2.08944,-1.11824 -16.29644,-1.39759 -22.11464,-0.43484 -3.28252,0.54317 -3.63135,0.95484 -4.86284,5.739 -0.72965,2.83462 -1.67221,7.17885 -2.09457,9.65385 -0.42235,2.475 -1.10282,5.9625 -1.51216,7.75 l -0.74424,3.25 h 12.29626 c 10.03847,0 12.63204,-0.30388 14.125,-1.65499 z M 131.56953,96.488837 c 0.34912,-0.90981 0.0478,-3.72231 -0.6696,-6.25 -0.7174,-2.52769 -1.4858,-5.94579 -1.70754,-7.59579 -0.22174,-1.65 -1.15274,-5.3625 -2.06888,-8.25 l -1.6657,-5.25 h -11.8281 c -16.814769,0 -19.343379,2.14117 -16.164609,13.6879 0.88002,3.19665 1.95618,7.55439 2.39146,9.68385 0.435269,2.12946 1.404309,4.26007 2.153419,4.73468 0.7491,0.47462 7.56362,0.86983 15.14338,0.87825 11.90753,0.0132 13.8677,-0.20961 14.41617,-1.63889 z m 64.10246,0.4542 c 1.6855,-1.6855 1.64176,-23.81359 -0.0517,-26.12948 -1.12534,-1.53899 -3.42128,-1.68443 -22.75001,-1.44112 l -21.4983,0.27061 0.20764,2.5 c 0.32604,3.92572 1.96458,12.16018 3.18245,15.99339 0.61045,1.92137 1.10991,4.70087 1.10991,6.17667 0,1.71462 0.63175,2.84837 1.75,3.1406 0.9625,0.25153 9.6475,0.50953 19.3,0.57333 12.45347,0.0823 17.89849,-0.23248 18.75001,-1.084 z m 65.84147,-3.3 c 1.47163,-4.04872 2.895,-11.07115 4.00697,-19.7691 l 0.60969,-4.7691 -22.87906,0.2691 -22.87907,0.26911 -0.28023,13.4223 c -0.21007,10.06212 0.0403,13.62868 1,14.2467 0.70413,0.45342 9.75993,0.71339 20.124,0.5777 l 18.84378,-0.24671 z m 51.98059,2.75 c 0.30761,-0.9625 0.94225,-2.65 1.4103,-3.75 0.79681,-1.87262 2.40237,-8.36612 3.66351,-14.8166 0.42572,-2.17747 -0.087,-3.48225 -2.25969,-5.75 -2.7673,-2.88845 -2.97512,-2.93339 -13.56425,-2.93339 -7.3516,0 -10.99116,0.3839 -11.50384,1.21343 -0.74895,1.21183 -1.65059,5.44836 -3.35065,15.74364 -0.49562,3.0014 -1.469,6.51816 -2.16307,7.81503 -1.93517,3.61591 0.0493,4.19535 14.42701,4.21258 11.30105,0.0135 12.84617,-0.18737 13.34068,-1.73469 z"
     id="path4495"
     inkscape:connector-curvature="0" />
</svg>
