<?xml version="1.0" encoding="UTF-8" standalone="no"?>
<!-- Created with Inkscape (http://www.inkscape.org/) -->

<svg
   xmlns:dc="http://purl.org/dc/elements/1.1/"
   xmlns:cc="http://creativecommons.org/ns#"
   xmlns:rdf="http://www.w3.org/1999/02/22-rdf-syntax-ns#"
   xmlns:svg="http://www.w3.org/2000/svg"
   xmlns="http://www.w3.org/2000/svg"
   xmlns:sodipodi="http://sodipodi.sourceforge.net/DTD/sodipodi-0.dtd"
   xmlns:inkscape="http://www.inkscape.org/namespaces/inkscape"
   version="1.1"
   id="svg4485"
   width="23"
   height="23"
   viewBox="0 0 460 460"
   sodipodi:docname="cube.svg"
   inkscape:version="0.92.1 r15371">
  <metadata
     id="metadata4491">
    <rdf:RDF>
      <cc:Work
         rdf:about="">
        <dc:format>image/svg+xml</dc:format>
        <dc:type
           rdf:resource="http://purl.org/dc/dcmitype/StillImage" />
        <dc:title></dc:title>
      </cc:Work>
    </rdf:RDF>
  </metadata>
  <defs
     id="defs4489" />
  <sodipodi:namedview
     pagecolor="#ffffff"
     bordercolor="#666666"
     borderopacity="1"
     objecttolerance="10"
     gridtolerance="10"
     guidetolerance="10"
     inkscape:pageopacity="0"
     inkscape:pageshadow="2"
     inkscape:window-width="1920"
     inkscape:window-height="1017"
     id="namedview4487"
     showgrid="false"
     scale-x="20"
     inkscape:zoom="8.8833563"
     inkscape:cx="11.864567"
     inkscape:cy="24.396881"
     inkscape:window-x="-8"
     inkscape:window-y="-8"
     inkscape:window-maximized="1"
     inkscape:current-layer="svg4485" />
  <path
     style="fill:#020202"
     d="m 225.46993,453.14185 c -1.1,-0.30728 -48.57499,-21.22235 -105.5,-46.47792 C 23.444082,363.83888 16.197622,360.45298 12.428832,356.41546 c -2.2226,-2.38108 -4.5814696,-6.07704 -5.2419396,-8.21323 -0.90524,-2.92788 -1.20283,-32.63393 -1.20891,-120.67384 -0.008,-114.53371 0.0303,-116.86501 1.97711,-120.68108 1.09184,-2.14018 3.7034596,-5.33383 5.8035896,-7.096996 2.53053,-2.12451 38.70954,-18.75103 107.264838,-49.29492 C 223.03213,5.0068543 224.56027,4.3662543 230.96993,4.3662543 c 6.40966,0 7.93781,0.6406 109.94641,46.0891397 70.48182,31.40223 104.69963,47.1413 107.37918,49.39091 2.16303,1.815976 4.77464,5.204946 5.80359,7.531056 1.79277,4.05286 1.87082,9.07858 1.87082,120.46906 0,87.15186 -0.2986,117.23641 -1.19325,120.2225 -0.65629,2.1905 -3.01879,5.93867 -5.25,8.32926 -3.78987,4.06058 -10.8963,7.38131 -108.02408,50.47797 -106.34451,47.18623 -108.97821,48.23636 -116.03267,46.2657 z M 208.96994,308.48143 v -87.3368 l -68.25,-30.32573 C 103.18244,174.13974 67.629992,158.33742 61.714512,155.70264 l -10.75543,-4.79052 0.25542,88.00676 0.25543,88.00677 76.999998,34.34671 c 42.35001,18.89069 77.78751,34.39152 78.75001,34.44629 1.65407,0.0941 1.75,-4.68805 1.75,-87.23722 z m 124.01199,52.88956 77.488,-34.44725 0.25543,-88.01721 0.25542,-88.01722 -7.75542,3.47706 c -4.26549,1.91238 -39.48043,17.57232 -78.25543,34.79986 l -70.5,31.3228 -0.25546,87.6646 c -0.14051,48.21553 0.0899,87.6646 0.512,87.6646 0.42211,0 35.63707,-15.50126 78.25546,-34.44724 z M 305.18626,148.73492 c 39.99398,-17.77455 72.61898,-32.40735 72.5,-32.51733 -0.11898,-0.10998 -33.17779,-14.84412 -73.46403,-32.742526 l -73.2477,-32.54256 -73.5516,32.68125 C 94.139172,111.73266 84.185672,116.43622 86.123222,117.30661 c 65.548728,29.44603 144.598108,64.28209 145.346708,64.05244 0.55,-0.16872 33.72235,-14.84958 73.71633,-32.62413 z"
     id="path4495"
     inkscape:connector-curvature="0" />
</svg>
