<?xml version="1.0" encoding="UTF-8" standalone="no"?>
<!-- Created with Inkscape (http://www.inkscape.org/) -->

<svg
   xmlns:dc="http://purl.org/dc/elements/1.1/"
   xmlns:cc="http://creativecommons.org/ns#"
   xmlns:rdf="http://www.w3.org/1999/02/22-rdf-syntax-ns#"
   xmlns:svg="http://www.w3.org/2000/svg"
   xmlns="http://www.w3.org/2000/svg"
   xmlns:sodipodi="http://sodipodi.sourceforge.net/DTD/sodipodi-0.dtd"
   xmlns:inkscape="http://www.inkscape.org/namespaces/inkscape"
   version="1.1"
   id="svg4485"
   width="20"
   height="20"
   viewBox="0 0 560 560"
   sodipodi:docname="f.svg"
   inkscape:version="0.92.1 r15371">
  <metadata
     id="metadata4491">
    <rdf:RDF>
      <cc:Work
         rdf:about="">
        <dc:format>image/svg+xml</dc:format>
        <dc:type
           rdf:resource="http://purl.org/dc/dcmitype/StillImage" />
        <dc:title></dc:title>
      </cc:Work>
    </rdf:RDF>
  </metadata>
  <defs
     id="defs4489" />
  <sodipodi:namedview
     pagecolor="#ffffff"
     bordercolor="#666666"
     borderopacity="1"
     objecttolerance="10"
     gridtolerance="10"
     guidetolerance="10"
     inkscape:pageopacity="0"
     inkscape:pageshadow="2"
     inkscape:window-width="1920"
     inkscape:window-height="1017"
     id="namedview4487"
     showgrid="false"
     scale-x="28"
     inkscape:zoom="8.9787831"
     inkscape:cx="38.917171"
     inkscape:cy="34.706992"
     inkscape:window-x="-8"
     inkscape:window-y="-8"
     inkscape:window-maximized="1"
     inkscape:current-layer="svg4485" />
  <path
     style="fill:#010101;stroke-width:1.04347825"
     d="m 229.18669,550.40463 c -8.58422,-1.86735 -14.2745,-4.93348 -21.05413,-11.34474 -6.3001,-5.9578 -10.83491,-14.00147 -12.61212,-22.37091 -0.81185,-3.82327 -1.17419,-30.30786 -1.17419,-85.82609 v -80.29646 h -14.55733 c -8.00654,0 -17.04567,-0.52839 -20.08696,-1.17419 -17.01632,-3.61332 -30.344,-16.94386 -34.48067,-34.48808 -1.93515,-8.20726 -1.83915,-86.70989 0.11653,-95.29424 3.63293,-15.94649 13.93813,-27.60821 29.24549,-33.09524 4.60432,-1.65044 9.46036,-2.21179 22.80642,-2.63636 l 16.95652,-0.53943 V 170.3898 c 0,-31.48305 5.31656,-56.23755 16.96639,-78.99756 16.02086,-31.29956 43.82483,-54.7638 77.99504,-65.821314 21.14768,-6.84342 25.8001,-7.30039 74.60379,-7.32775 39.13888,-0.022 44.4505,0.17361 49.66446,1.82857 11.04805,3.50673 21.74969,12.228784 26.48973,21.589664 5.72072,11.29758 5.91376,13.13791 5.80048,55.29769 -0.0778,28.98989 -0.47972,40.88547 -1.55545,46.04462 -3.7121,17.80338 -14.74565,29.33393 -33.48727,34.99572 -5.15642,1.55774 -9.73008,1.85708 -26.825,1.75563 -16.28994,-0.0966 -20.60869,0.16234 -20.60869,1.23593 0,1.41925 4.17333,1.90005 28.17391,3.24584 6.6,0.37008 14.54745,1.33501 17.66102,2.14428 16.49015,4.28607 28.67346,16.93658 32.68134,33.93456 1.95606,8.29595 1.8413,86.92706 -0.13833,94.7725 -3.28304,13.01102 -12.18126,25.23634 -22.02258,30.25702 -9.32443,4.75696 -13.30205,5.43278 -35.18327,5.97787 l -21.08879,0.52533 -0.30252,81.53293 -0.30252,81.53292 -2.41765,6.69609 c -5.96775,16.52869 -18.57392,26.71876 -36.19105,29.25463 -11.22264,1.61544 -87.22187,1.24745 -95.0726,-0.46034 z m 91.76465,-35.04652 c 7.30068,-2.02725 6.96013,3.07297 6.96013,-104.23643 v -96.0335 h 35.9509 c 24.49685,0 36.77521,-0.37558 38.53817,-1.17884 4.7101,-2.14607 4.90517,-4.16943 4.59007,-47.60884 -0.27359,-37.71594 -0.44157,-41.02301 -2.17096,-42.74127 -1.74127,-1.73007 -4.54508,-1.84082 -39.47542,-1.5591 l -37.60101,0.30325 0.34499,-30.04238 0.345,-30.04238 2.9211,-5.94847 c 2.55083,-5.19448 3.67074,-6.31524 8.83535,-8.84205 l 5.91426,-2.89358 28.39281,-0.54926 c 26.78891,-0.51824 28.55921,-0.67351 31.33855,-2.74868 1.97547,-1.47498 3.1789,-3.53721 3.65358,-6.26087 1.24295,-7.1319 1.12291,-72.05034 -0.13758,-74.40559 -2.10323,-3.92993 -5.13457,-4.50499 -28.65702,-5.43639 -38.42709,-1.52157 -62.35907,0.0218 -78.34801,5.05274 -26.92602,8.47226 -47.64678,26.18553 -59.4727,50.84059 -8.51023,17.74241 -11.97897,39.36586 -11.99551,74.77762 -0.005,11.82451 -0.30742,24.34423 -0.67088,27.8216 l -0.66083,6.3225 -30.90439,0.41217 c -16.99741,0.2267 -31.74348,0.79431 -32.76907,1.26137 -4.67494,2.12902 -4.91792,4.44734 -4.91792,46.92107 v 40.16754 l 2.51713,2.92776 2.51713,2.92775 32.42369,0.30352 32.42368,0.30351 0.27658,97.935 c 0.26457,93.68456 0.36053,98.02777 2.21113,100.07242 1.06401,1.17558 3.17705,2.32832 4.69565,2.56165 6.53964,1.0048 79.14039,0.66826 82.9314,-0.38443 z"
     id="path4495"
     inkscape:connector-curvature="0" />
</svg>
