<?xml version="1.0" encoding="UTF-8" standalone="no"?>
<!-- Created with Inkscape (http://www.inkscape.org/) -->

<svg
   xmlns:dc="http://purl.org/dc/elements/1.1/"
   xmlns:cc="http://creativecommons.org/ns#"
   xmlns:rdf="http://www.w3.org/1999/02/22-rdf-syntax-ns#"
   xmlns:svg="http://www.w3.org/2000/svg"
   xmlns="http://www.w3.org/2000/svg"
   xmlns:sodipodi="http://sodipodi.sourceforge.net/DTD/sodipodi-0.dtd"
   xmlns:inkscape="http://www.inkscape.org/namespaces/inkscape"
   version="1.1"
   id="svg4497"
   width="20"
   height="20"
   viewBox="0 0 480 480"
   sodipodi:docname="g.svg"
   inkscape:version="0.92.1 r15371">
  <metadata
     id="metadata4503">
    <rdf:RDF>
      <cc:Work
         rdf:about="">
        <dc:format>image/svg+xml</dc:format>
        <dc:type
           rdf:resource="http://purl.org/dc/dcmitype/StillImage" />
        <dc:title></dc:title>
      </cc:Work>
    </rdf:RDF>
  </metadata>
  <defs
     id="defs4501" />
  <sodipodi:namedview
     pagecolor="#ffffff"
     bordercolor="#666666"
     borderopacity="1"
     objecttolerance="10"
     gridtolerance="10"
     guidetolerance="10"
     inkscape:pageopacity="0"
     inkscape:pageshadow="2"
     inkscape:window-width="1920"
     inkscape:window-height="1017"
     id="namedview4499"
     showgrid="false"
     scale-x="24"
     inkscape:zoom="7.375"
     inkscape:cx="2.6890015"
     inkscape:cy="18.021924"
     inkscape:window-x="-8"
     inkscape:window-y="-8"
     inkscape:window-maximized="1"
     inkscape:current-layer="svg4497" />
  <path
     style="fill:#010101"
     d="m 109.35593,452.65381 c -19.337437,-2.19014 -40.391757,-8.45664 -53.379277,-15.88753 -37.34944,-21.36971 -48.85022,-59.64132 -28.39873,-94.50356 5.12647,-8.73874 17.95799,-21.73542 27.61791,-27.9734 18.65955,-12.04958 46.100787,-20.65354 75.160097,-23.56581 6.325,-0.63388 12.04806,-1.31471 12.71791,-1.51295 0.84253,-0.24935 0.29228,-2.33848 -1.78526,-6.77808 -3.59396,-7.6801 -5.27729,-17.06322 -4.36749,-24.34501 l 0.66529,-5.32475 -6.36523,-0.004 c -15.33334,-0.01 -35.549157,-5.4567 -48.541307,-13.07912 -3.20315,-1.87929 -10.34758,-7.91688 -15.87652,-13.41688 -8.32523,-8.28167 -10.8491,-11.55314 -14.68792,-19.03866 -12.9138,-25.18132 -12.84069,-51.43359 0.21572,-77.46135 4.90591,-9.77986 10.86547,-17.62488 20.15157,-26.52707 16.63786,-15.950017 36.528817,-25.346937 65.873237,-31.119977 7.39064,-1.45398 18.80695,-1.72394 87.47247,-2.06839 43.43485,-0.21789 78.75985,-0.1838 78.5,0.0758 -0.25986,0.25955 -13.72007,7.70966 -29.91159,16.5558 -29.31065,16.013647 -29.46691,16.083837 -35.80845,16.083837 h -6.36932 l 4.62209,6.00676 c 15.05675,19.56737 21.10386,42.87206 17.08983,65.86167 -3.74889,21.47103 -14.35187,37.49832 -36.16357,54.66422 -21.82086,17.17311 -23.86007,25.89511 -8.86283,37.90752 2.78774,2.23291 10.53042,8.25187 17.20596,13.37547 34.99116,26.85635 47.66738,48.44592 45.90558,78.18437 -2.9466,49.73767 -49.36055,87.15698 -116.53612,93.9524 -11.93482,1.20732 -35.21604,1.17638 -46.14405,-0.0613 z m 75,-37.3651 c 17.47761,-4.67075 31.36031,-15.08869 36.01418,-27.02599 3.25208,-8.34167 3.34823,-20.94355 0.21247,-27.8492 -5.00083,-11.01296 -12.81581,-18.7183 -35.72665,-35.22538 l -11,-7.92542 -11.5,0.23685 c -42.04121,0.86589 -72.493497,13.13724 -81.778327,32.95418 -2.4206,5.16638 -2.72167,6.97048 -2.72167,16.30897 0,9.71412 0.23685,10.99994 3.16452,17.17961 3.91393,8.26144 9.60837,14.55034 17.93879,19.81148 9.561937,6.03891 17.173637,8.91072 31.896687,12.03426 11.87755,2.51987 43.29971,2.22658 53.5,-0.49936 z m -9.66788,-195.84557 c 10.16354,-5.02309 15.92909,-11.43765 18.81227,-20.92987 1.8655,-6.14178 2.06185,-8.59691 1.57026,-19.63502 -0.88838,-19.94738 -6.55116,-37.63245 -17.15091,-53.5629 -6.65065,-9.9953 -12.53117,-15.42729 -21.45411,-19.81772 -6.02,-2.96208 -7.37727,-3.2343 -16.09208,-3.22759 -8.58657,0.007 -10.16816,0.31486 -16.1688,3.15125 -11.43271,5.40402 -18.22569,14.26628 -20.9574,27.34142 -1.78199,8.52939 -0.52435,27.59342 2.5728,39.00001 5.37564,19.7981 16.81845,37.72777 29.08658,45.5756 7.7012,4.9264 13.57442,6.44592 23.60978,6.10834 7.6595,-0.25766 9.52867,-0.7204 16.17161,-4.00352 z m 178.66788,2.81958 v -40.5 h -40 -40 v -17 -17.00001 h 40 40 v -39 -38.999997 h 17 17 v 38.999997 39 h 39 39 v 17.00001 17 h -39 -39 v 40.5 40.5 h -17 -17 z"
     id="path5050"
     inkscape:connector-curvature="0" />
</svg>
