<?xml version="1.0" encoding="UTF-8" standalone="no"?>
<!-- Created with Inkscape (http://www.inkscape.org/) -->

<svg
   xmlns:dc="http://purl.org/dc/elements/1.1/"
   xmlns:cc="http://creativecommons.org/ns#"
   xmlns:rdf="http://www.w3.org/1999/02/22-rdf-syntax-ns#"
   xmlns:svg="http://www.w3.org/2000/svg"
   xmlns="http://www.w3.org/2000/svg"
   xmlns:sodipodi="http://sodipodi.sourceforge.net/DTD/sodipodi-0.dtd"
   xmlns:inkscape="http://www.inkscape.org/namespaces/inkscape"
   version="1.1"
   id="svg4503"
   width="16"
   height="16"
   viewBox="0 0 400 400"
   sodipodi:docname="loupe.svg"
   inkscape:version="0.92.1 r15371">
  <metadata
     id="metadata4509">
    <rdf:RDF>
      <cc:Work
         rdf:about="">
        <dc:format>image/svg+xml</dc:format>
        <dc:type
           rdf:resource="http://purl.org/dc/dcmitype/StillImage" />
        <dc:title></dc:title>
      </cc:Work>
    </rdf:RDF>
  </metadata>
  <defs
     id="defs4507" />
  <sodipodi:namedview
     pagecolor="#000000"
     bordercolor="#666666"
     borderopacity="1"
     objecttolerance="10"
     gridtolerance="10"
     guidetolerance="10"
     inkscape:pageopacity="0"
     inkscape:pageshadow="2"
     inkscape:window-width="1920"
     inkscape:window-height="1017"
     id="namedview4505"
     showgrid="false"
     scale-x="25"
     inkscape:zoom="9.44"
     inkscape:cx="2.6399663"
     inkscape:cy="21.906581"
     inkscape:window-x="-8"
     inkscape:window-y="-8"
     inkscape:window-maximized="1"
     inkscape:current-layer="svg4503" />
  <path
     style="fill:#fefefe;stroke-width:0.31999999"
     d="m 356.57715,398.01533 c -5.24445,-0.98582 -10.8857,-3.45162 -14.9297,-6.5257 -1.144,-0.86963 -27.94297,-27.47427 -59.55326,-59.1214 -42.33424,-42.38358 -57.8267,-58.08815 -58.81501,-59.62026 -4.07347,-6.31478 -5.91466,-12.54065 -5.91466,-20 0,-4.37637 0.46857,-7.49048 1.69565,-11.2693 l 0.8538,-2.6293 -7.22522,-7.2201 -7.22522,-7.2201 -1.90804,1.48573 c -17.14498,13.35026 -37.67275,21.79983 -60.62803,24.9555 -5.0894,0.69964 -20.13466,0.97316 -26.0046,0.47276 -23.928063,-2.03981 -45.837743,-10.44259 -65.035403,-24.94231 -6.64613,-5.01973 -14.607842,-12.6026 -20.025752,-19.07288 -15.49808,-18.5084 -24.8729,-39.9195 -28.16242,-64.32001 -0.83237,-6.17423 -1.16259,-19.32089 -0.64302,-25.6 2.029,-24.520848 10.42349,-46.723327 24.89669,-65.848904 3.41865,-4.51757 5.93738,-7.41117 10.45995,-12.01673 21.259082,-21.64914 48.563572,-34.3344096 79.394555,-36.8855496 6.27911,-0.51956 19.42577,-0.18935 25.6,0.64302 27.38202,3.69147 51.40507,15.2554796 70.82509,34.0931696 22.00088,21.34116 34.95155,48.768386 37.51799,79.456494 0.54307,6.49368 0.21519,20.26889 -0.63025,26.4785 -3.02377,22.20905 -11.57769,42.8398 -24.80591,59.82805 l -1.48573,1.90804 7.25248,7.25763 7.25249,7.25763 1.02111,-0.42665 c 2.01221,-0.84075 6.06377,-1.73813 9.44676,-2.09235 7.75656,-0.81215 15.86845,1.135 22.72596,5.45507 2.42505,1.52773 8.94381,7.92804 60.11546,59.02307 36.43814,36.38356 58.092,58.23653 59.30304,59.84827 2.46499,3.28067 4.83763,8.16461 5.92134,12.18877 0.7911,2.9376 0.85965,3.67786 0.85853,9.27248 0,5.21555 -0.0981,6.43024 -0.68243,8.54339 -3.72775,13.47939 -13.17085,22.86762 -26.35975,26.2065 -3.54301,0.89696 -11.44486,1.12579 -15.10649,0.43747 z M 137.3727,223.93786 c 18.68146,-1.96183 35.16777,-8.648 50.34759,-20.41889 1.85194,-1.43605 5.67116,-4.915 8.48716,-7.731 10.43277,-10.43277 17.64577,-21.59094 22.651,-35.04001 3.68848,-9.91095 5.54595,-19.66011 5.88346,-30.88 0.70433,-23.41418 -6.55009,-45.259618 -21.09369,-63.519987 C 180.65927,37.483936 143.3577,24.050446 107.32395,31.658526 91.049977,35.094566 76.259687,42.426326 63.727457,53.269916 35.895245,77.351933 24.115565,114.38648 32.836495,150.38912 c 8.77499,36.22581 38.484022,64.72177 75.196385,72.12599 9.27397,1.87039 20.08504,2.39464 29.33982,1.42275 z"
     id="path5056"
     inkscape:connector-curvature="0" />
</svg>
