<?xml version="1.0" encoding="UTF-8" standalone="no"?>
<!-- Created with Inkscape (http://www.inkscape.org/) -->

<svg
   xmlns:dc="http://purl.org/dc/elements/1.1/"
   xmlns:cc="http://creativecommons.org/ns#"
   xmlns:rdf="http://www.w3.org/1999/02/22-rdf-syntax-ns#"
   xmlns:svg="http://www.w3.org/2000/svg"
   xmlns="http://www.w3.org/2000/svg"
   xmlns:sodipodi="http://sodipodi.sourceforge.net/DTD/sodipodi-0.dtd"
   xmlns:inkscape="http://www.inkscape.org/namespaces/inkscape"
   version="1.1"
   id="svg5607"
   width="20"
   height="20"
   viewBox="0 0 540 540"
   sodipodi:docname="vk.svg"
   inkscape:version="0.92.1 r15371">
  <metadata
     id="metadata5613">
    <rdf:RDF>
      <cc:Work
         rdf:about="">
        <dc:format>image/svg+xml</dc:format>
        <dc:type
           rdf:resource="http://purl.org/dc/dcmitype/StillImage" />
        <dc:title></dc:title>
      </cc:Work>
    </rdf:RDF>
  </metadata>
  <defs
     id="defs5611" />
  <sodipodi:namedview
     pagecolor="#ffffff"
     bordercolor="#666666"
     borderopacity="1"
     objecttolerance="10"
     gridtolerance="10"
     guidetolerance="10"
     inkscape:pageopacity="0"
     inkscape:pageshadow="2"
     inkscape:window-width="1920"
     inkscape:window-height="1017"
     id="namedview5609"
     showgrid="false"
     scale-x="27"
     inkscape:zoom="20.85965"
     inkscape:cx="13.67915"
     inkscape:cy="13.11186"
     inkscape:window-x="-8"
     inkscape:window-y="-8"
     inkscape:window-maximized="1"
     inkscape:current-layer="svg5607" />
  <path
     style="fill:#030303"
     d="m 419.0114,418.5235 c -3.29569,-0.67226 -9.722,-3.15009 -14.28068,-5.50628 -6.90484,-3.56882 -10.38247,-6.37685 -20.83169,-16.82066 -6.89874,-6.89517 -16.79562,-17.23063 -21.99305,-22.96767 -18.87004,-20.82918 -29.61688,-25.22802 -38.69475,-15.83833 -6.50577,6.72924 -10.09661,18.63816 -12.08171,40.06868 -1.53632,16.58559 -3.89944,17.70064 -37.51278,17.70064 -29.25932,0 -43.49441,-1.92652 -63.67454,-8.61747 C 170.30767,393.40114 139.95841,369.36016 106.65347,324.72284 78.32312,286.7528 43.90342,226.89052 18.50722,171.42006 13.92494,161.41144 13.83461,161.02275 14.50644,154.20473 l 0.68735,-6.97552 4.1242,-1.46719 c 6.33314,-2.25304 79.649265,-3.08084 86.7262,-0.97922 7.94338,2.35894 12.03185,6.84291 17.0093,18.65475 14.73435,34.9656 42.07468,81.3118 57.83525,98.03992 17.01937,18.06419 27.41772,13.31153 31.65503,-14.46821 2.08814,-13.68985 1.42878,-59.57402 -1.01093,-70.34938 -3.26838,-14.43528 -8.94048,-20.64284 -24.28154,-26.5738 -4.60473,-1.78023 -8.24554,-3.58529 -8.09067,-4.01127 0.66968,-1.84203 12.38962,-11.18936 16.88699,-13.46835 8.0403,-4.07433 21.7855,-8.24535 31.31558,-9.5028 5.37985,-0.70985 16.29586,-1.00311 27.5,-0.7388 17.86281,0.42139 18.92593,0.56268 27.579,3.66536 4.95,1.77489 11.1623,3.90496 13.8051,4.73347 7.0184,2.20026 11.90853,7.53288 14.11319,15.39022 1.64939,5.8784 1.72893,9.97608 1.04956,54.07517 -0.78549,50.98811 -0.43557,56.82369 3.86239,64.41195 1.19337,2.10695 3.36682,4.71829 4.82989,5.80298 7.79384,5.77822 20.12617,-4.70275 39.75177,-33.78413 15.48228,-22.94178 28.5086,-47.16199 38.68598,-71.92995 3.20561,-7.80128 6.11339,-13.21253 8.40212,-15.636 l 3.5,-3.70606 28.5,-0.70655 c 15.675,-0.38861 39.075,-0.5524 52,-0.364 21.50555,0.31349 23.83948,0.51983 27.5,2.43125 7.67855,4.00953 7.23976,13.44596 -1.44228,31.01705 -8.35384,16.90688 -18.36839,31.49479 -47.63889,69.39426 -20.96291,27.1428 -25.76931,34.26372 -28.08462,41.60872 -3.38921,10.7518 0.39547,16.53069 27.37952,41.80614 35.4441,33.19983 55.29359,58.67045 55.28253,70.93786 -0.008,9.37129 -7.89198,15.12291 -22.8315,16.65727 -14.55384,1.49475 -75.22025,1.75607 -82.09556,0.35363 z m 29.84382,-17.36362 c 29.23147,0 55.08698,-1.13639 55.08698,-2.42116 0,-0.60804 -1.65122,-3.57453 -3.66937,-6.59219 -8.796,-13.15228 -20.68124,-26.00606 -51.54608,-55.74659 -36.51857,-35.18832 -36.04015,-46.17354 4.25669,-97.74006 14.69851,-18.80918 26.961,-35.51532 35.23253,-48 7.91746,-11.95025 16.2814,-27.27816 15.37785,-28.18171 -0.26111,-0.26112 -19.49586,-0.10205 -42.74388,0.35348 l -42.26913,0.82823 -3.83677,9.5 c -15.89872,39.36589 -43.69636,84.31983 -64.13437,103.71717 -10.70849,10.16323 -16.00269,12.74271 -26.16747,12.74953 -9.26714,0.006 -12.38129,-1.29535 -19.04649,-7.96056 -8.47208,-8.47208 -12.15129,-19.65947 -12.66675,-38.51585 -0.15772,-5.76966 0.0668,-28.26529 0.49892,-49.99029 0.63165,-31.75567 0.52971,-39.98638 -0.51994,-41.98077 -0.99008,-1.8812 -3.8385,-3.40812 -11.78568,-6.31779 l -10.48006,-3.83703 -24,0.40318 c -16.35187,0.27469 -25.17706,0.82226 -27.69364,1.71827 l -3.69364,1.31511 3.35949,4.09981 c 9.79545,11.95406 12.78271,24.71662 14.0671,60.09922 1.65765,45.66565 -6.19891,71.94501 -23.76855,79.50327 -4.29184,1.8463 -6.48082,2.15282 -12.72705,1.78212 -8.25397,-0.48984 -11.62402,-1.84038 -19.78832,-7.93011 -16.8851,-12.59453 -47.77298,-60.97045 -67.26903,-105.35528 -2.89906,-6.6 -5.71206,-12.5625 -6.25113,-13.25 -0.74916,-0.95546 -8.845025,-1.25 -34.35768,-1.25 -18.35765,0 -33.37755,0.39105 -33.37755,0.869 0,1.80064 27.20495,55.56724 37.05154,73.22694 28.39676,50.92911 53.18576,86.16237 78.42346,111.46532 20.65783,20.71124 40.1242,33.04965 65.41988,41.46523 18.31456,6.09303 26.97149,7.23521 53.54935,7.06518 12.61932,-0.0807 23.03808,-0.24689 23.15279,-0.36923 0.11471,-0.12234 0.71581,-4.49744 1.33578,-9.72244 2.9942,-25.23473 11.58029,-41.40128 25.78964,-48.55872 4.93874,-2.4877 6.94658,-2.91248 13.82942,-2.92575 7.30328,-0.0141 8.74432,0.3298 15.5,3.69892 8.65402,4.31583 16.44604,11.03137 28.52686,24.58585 17.61731,19.76632 28.25197,29.86299 35.42355,33.63155 3.74851,1.96979 8.88148,3.86461 11.4066,4.21071 3.22216,0.44165 4.62572,1.11057 4.70713,2.24336 0.0964,1.3412 0.19332,1.31822 0.57333,-0.13592 0.41505,-1.58825 2.19184,-1.75 19.22369,-1.75 z"
     id="path6160"
     inkscape:connector-curvature="0" />
</svg>
