<?xml version="1.0" encoding="UTF-8" standalone="no"?>
<!-- Created with Inkscape (http://www.inkscape.org/) -->

<svg
   xmlns:dc="http://purl.org/dc/elements/1.1/"
   xmlns:cc="http://creativecommons.org/ns#"
   xmlns:rdf="http://www.w3.org/1999/02/22-rdf-syntax-ns#"
   xmlns:svg="http://www.w3.org/2000/svg"
   xmlns="http://www.w3.org/2000/svg"
   xmlns:sodipodi="http://sodipodi.sourceforge.net/DTD/sodipodi-0.dtd"
   xmlns:inkscape="http://www.inkscape.org/namespaces/inkscape"
   version="1.1"
   id="svg5052"
   width="20"
   height="20"
   viewBox="0 0 540 540"
   sodipodi:docname="y.svg"
   inkscape:version="0.92.1 r15371">
  <metadata
     id="metadata5058">
    <rdf:RDF>
      <cc:Work
         rdf:about="">
        <dc:format>image/svg+xml</dc:format>
        <dc:type
           rdf:resource="http://purl.org/dc/dcmitype/StillImage" />
        <dc:title></dc:title>
      </cc:Work>
    </rdf:RDF>
  </metadata>
  <defs
     id="defs5056" />
  <sodipodi:namedview
     pagecolor="#ffffff"
     bordercolor="#666666"
     borderopacity="1"
     objecttolerance="10"
     gridtolerance="10"
     guidetolerance="10"
     inkscape:pageopacity="0"
     inkscape:pageshadow="2"
     inkscape:window-width="1920"
     inkscape:window-height="1017"
     id="namedview5054"
     showgrid="false"
     scale-x="27"
     inkscape:zoom="7.375"
     inkscape:cx="18.47124"
     inkscape:cy="12.413168"
     inkscape:window-x="-8"
     inkscape:window-y="-8"
     inkscape:window-maximized="1"
     inkscape:current-layer="svg5052" />
  <path
     style="fill:#010101"
     d="m 160.37289,468.14142 c -52.82937,-1.46287 -77.519226,-2.87994 -85.430386,-4.90327 -27.06047,-6.92091 -48.16699,-29.96907 -55.01454,-60.07546 -0.89177,-3.92081 -2.37373,-19.1243 -3.29324,-33.78555 -2.35588,-37.56369 -2.35695,-145.34146 -0.002,-183.6568 2.14582,-34.90992 3.50069,-41.48061 11.91572,-57.78741 6.14603,-11.9099 20.03262,-25.65346 31.82426,-31.496491 12.53681,-6.21227 17.53009,-7.16537 43.173666,-8.2408 113.28211,-4.75081 339.66167,-3.11207 362.32634,2.62284 10.71376,2.71093 21.87039,8.96569 30.54063,17.122031 12.6065,11.85929 19.64469,23.9096 24.06937,41.20993 6.30783,24.66339 7.55689,192.92736 1.81426,244.40349 -3.80329,34.09205 -26.40317,61.98831 -56.44359,69.67135 -8.1805,2.09222 -30.56489,3.3266 -90.48067,4.98952 -40.29112,1.11826 -173.60913,1.07275 -215,-0.0734 z m 245,-32.8799 c 47.63319,-1.88156 52.11132,-2.32913 59.4497,-5.9418 11.36153,-5.59327 21.86503,-19.61628 24.48929,-32.69517 2.14281,-10.67945 5.01952,-78.16779 5.0257,-117.90421 0.007,-42.72963 -2.88596,-111.71135 -5.11581,-122 -3.00011,-13.84269 -12.30848,-26.14676 -24.24303,-32.04514 l -7.21025,-3.56349 -21.4478,-0.93061 c -65.89372,-2.85908 -163.15424,-3.61172 -252.9478,-1.9574 -73.88988,1.36131 -97.655466,2.52166 -104.560346,5.1051 -10.61467,3.97146 -20.10328,13.79687 -25.02779,25.91614 -2.76271,6.79909 -3.72607,15.15136 -5.41817,46.9754 -3.47634,65.38076 -1.3196,185.04572 3.65869,203 4.3225,15.58914 15.30549,27.89581 28.84761,32.32433 5.43971,1.77889 30.066276,3.1186 85.500006,4.65129 39.8058,1.10059 203.704,0.45978 239,-0.93444 z m -184,-158.54118 c 0,-53.625 0.19968,-97.5 0.44372,-97.5 0.33511,0 143.14304,96.42914 144.28942,97.4295 0.31899,0.27836 -143.41968,97.5705 -144.14992,97.5705 -0.32077,0 -0.58322,-43.875 -0.58322,-97.5 z"
     id="path5605"
     inkscape:connector-curvature="0" />
</svg>
